<svg xmlns="http://www.w3.org/2000/svg" data-name="Layer 1" viewBox="0 0 20 20"><path d="M10 8.09c1.05 0 1.91.85 1.91 1.91s-.85 1.91-1.91 1.91-1.91-.85-1.91-1.91.85-1.91 1.91-1.91m5.67 3.18h.06c.7 0 1.27-.57 1.27-1.27s-.57-1.27-1.27-1.27h-.11c-.42 0-.8-.25-.96-.64v-.05c-.17-.39-.09-.85.21-1.16l.04-.04c.5-.5.5-1.3 0-1.8s-1.3-.5-1.8 0l-.04.04a1.061 1.061 0 0 1-1.8-.75v-.06C11.27 3.57 10.7 3 10 3s-1.27.57-1.27 1.27v.11c0 .42-.25.8-.64.96h-.05c-.39.17-.85.09-1.16-.21l-.04-.04c-.5-.5-1.3-.5-1.8 0s-.5 1.3 0 1.8l.04.04c.3.31.38.77.21 1.16-.15.4-.53.68-.96.69h-.06c-.7 0-1.27.57-1.27 1.27s.57 1.27 1.27 1.27h.11c.42 0 .8.25.96.64.17.39.09.85-.21 1.16l-.04.04c-.5.5-.5 1.3 0 1.8s1.3.5 1.8 0l.04-.04c.31-.3.77-.38 1.16-.21.4.15.68.53.69.96v.06c0 .7.57 1.27 1.27 1.27s1.27-.57 1.27-1.27v-.11c0-.42.25-.8.64-.96.39-.17.85-.09 1.16.21l.04.04c.5.5 1.3.5 1.8 0s.5-1.3 0-1.8l-.04-.04a1.061 1.061 0 0 1 .75-1.8"/></svg>