<svg xmlns="http://www.w3.org/2000/svg" viewBox="0 0 20 20"><path d="M12.29 10A2.29 2.29 0 1 1 10 7.71 2.3 2.3 0 0 1 12.29 10m-6.14 4.2a5.56 5.56 0 0 0 2.14 1.22v2.39a7.8 7.8 0 0 0 3.42 0v-2.39a5.56 5.56 0 0 0 2.14-1.22l1 .59 1 .6a8.5 8.5 0 0 0 1-1.38 7.5 7.5 0 0 0 .7-1.59l-1-.59-1-.59a5.56 5.56 0 0 0 0-2.48l1-.59 1-.59A7.5 7.5 0 0 0 16.92 6a8 8 0 0 0-1-1.38l-1 .6-1 .59a5.56 5.56 0 0 0-2.14-1.22v-2.4a7.8 7.8 0 0 0-3.42 0v2.39A5.56 5.56 0 0 0 6.15 5.8l-1-.59-1-.6A8 8 0 0 0 3.08 6a7.5 7.5 0 0 0-.7 1.59l1 .59 1 .59a5.56 5.56 0 0 0 0 2.48l-1 .59-1 .59a7.5 7.5 0 0 0 .7 1.57 8.5 8.5 0 0 0 1 1.38l1-.6Z"/></svg>