<?xml version="1.0" encoding="UTF-8"?>
<svg id="a" data-name="Layer 1" xmlns="http://www.w3.org/2000/svg" width="20" height="20" viewBox="0 0 20 20">
  <path d="m8.27,13.56c-2.69.81-2.69-1.35-3.77-1.62m7.54,3.23v-2.08c.04-.52-.14-1.03-.51-1.41,1.69-.19,3.47-.83,3.47-3.77,0-.75-.29-1.47-.81-2.02.25-.66.23-1.38-.05-2.03,0,0-.64-.19-2.11.8-1.23-.33-2.54-.33-3.77,0-1.47-.99-2.11-.8-2.11-.8-.28.65-.29,1.37-.05,2.03-.52.55-.81,1.28-.81,2.04,0,2.92,1.78,3.56,3.47,3.77-.36.37-.54.88-.51,1.39v2.08" fill="none" stroke="#000" stroke-linecap="round" stroke-linejoin="round" stroke-width="1.5"/>
</svg>