<?xml version="1.0" encoding="UTF-8"?>
<svg id="a" data-name="Layer 1" xmlns="http://www.w3.org/2000/svg" width="20" height="20" viewBox="0 0 20 20">
  <path d="m5,13.33v-3.33c0-2.76,2.24-5,5-5s5,2.24,5,5v3.33m0-2.22h-1.67c-.61,0-1.11.5-1.11,1.11v1.67c0,.61.5,1.11,1.11,1.11h.56c.61,0,1.11-.5,1.11-1.11v-2.78Zm-10,0h1.67c.61,0,1.11.5,1.11,1.11v1.67c0,.61-.5,1.11-1.11,1.11h-.56c-.61,0-1.11-.5-1.11-1.11v-2.78Z" fill="none" stroke="#000" stroke-linecap="round" stroke-linejoin="round" stroke-width="1.5"/>
</svg>