<?xml version="1.0" encoding="UTF-8"?>
<svg id="a" data-name="Layer 1" xmlns="http://www.w3.org/2000/svg" width="20" height="20" viewBox="0 0 20 20">
  <path d="m9.79,5.78l1.05-1.04c1.18-1.14,3.05-1.14,4.23,0,1.21,1.17,1.24,3.1.07,4.31l-1.83,1.83c-.1.1-.21.2-.33.29-1.35,1.01-3.26.73-4.26-.61m2.44-1.22c-1.01-1.35-2.92-1.62-4.26-.61-.12.09-.23.18-.33.29l-1.83,1.83c-1.17,1.21-1.13,3.14.07,4.31,1.18,1.14,3.05,1.14,4.23,0l1.04-1.04" fill="none" stroke="#000" stroke-linecap="round" stroke-linejoin="round" stroke-width="1.5"/>
</svg>