<?xml version="1.0" encoding="UTF-8"?>
<svg id="a" data-name="Layer 1" xmlns="http://www.w3.org/2000/svg" width="20" height="20" viewBox="0 0 20 20">
  <path d="m7,4.82l6,3.46m3,4.4v-5.33c0-.48-.25-.92-.67-1.15l-4.67-2.67c-.41-.24-.92-.24-1.33,0l-4.67,2.67c-.41.24-.67.68-.67,1.15v5.33c0,.48.25.92.67,1.15l4.67,2.67c.41.24.92.24,1.33,0l4.67-2.67c.41-.24.67-.68.67-1.15ZM4.18,6.65l5.82,3.37,5.82-3.37m-5.82,10.08v-6.72" fill="none" stroke="#000" stroke-linecap="round" stroke-linejoin="round" stroke-width="1.5"/>
</svg>