<?xml version="1.0" encoding="UTF-8"?>
<svg id="a" data-name="Layer 1" xmlns="http://www.w3.org/2000/svg" width="20" height="20" viewBox="0 0 20 20">
  <path d="m15.97,12.97v1.82c0,.67-.54,1.21-1.21,1.22-.04,0-.08,0-.11,0-1.86-.2-3.65-.84-5.23-1.86-1.46-.93-2.7-2.17-3.63-3.63-1.02-1.58-1.66-3.38-1.86-5.25-.06-.67.43-1.26,1.1-1.32.04,0,.07,0,.11,0h1.82c.61,0,1.13.44,1.21,1.04.08.58.22,1.15.42,1.7.17.44.06.94-.27,1.28l-.77.77c.86,1.52,2.12,2.77,3.63,3.63l.77-.77c.34-.33.84-.44,1.28-.27.55.21,1.12.35,1.7.42.61.09,1.06.61,1.04,1.23Z" fill="none" stroke="#000" stroke-linecap="round" stroke-linejoin="round" stroke-width="1.5"/>
</svg>