<?xml version="1.0" encoding="UTF-8"?>
<svg id="a" data-name="Layer 1" xmlns="http://www.w3.org/2000/svg" width="20" height="20" viewBox="0 0 20 20">
  <path d="m13.23,3.9h3.77v3.77m-4.39.63l4.39-4.39m-1.71,8.72c-.6-.08-1.19-.23-1.76-.44-.46-.17-.98-.06-1.32.28l-.8.8c-1.57-.89-2.87-2.19-3.77-3.77l.8-.8c.34-.35.45-.87.28-1.32-.21-.57-.36-1.16-.44-1.76-.09-.62-.63-1.09-1.26-1.08h-1.88s-.07,0-.11,0c-.69.06-1.2.67-1.14,1.36.21,1.94.87,3.8,1.93,5.44.96,1.52,2.25,2.8,3.77,3.77,1.63,1.06,3.49,1.72,5.42,1.93.04,0,.08,0,.12,0,.69,0,1.25-.57,1.25-1.26v-1.88c.02-.64-.45-1.19-1.08-1.27Z" fill="none" stroke="#000" stroke-linecap="round" stroke-linejoin="round" stroke-width="1.5"/>
</svg>