<?xml version="1.0" encoding="UTF-8"?>
<svg id="a" data-name="Layer 1" xmlns="http://www.w3.org/2000/svg" width="20" height="20" viewBox="0 0 20 20">
  <path d="m13.33,4.44c.92,0,1.67.75,1.67,1.67s-.75,1.67-1.67,1.67-1.67-.75-1.67-1.67.75-1.67,1.67-1.67Zm-8.33,5.56c0,.92.75,1.67,1.67,1.67s1.67-.75,1.67-1.67-.75-1.67-1.67-1.67-1.67.75-1.67,1.67Zm6.67,3.89c0,.92.75,1.67,1.67,1.67s1.67-.75,1.67-1.67-.75-1.67-1.67-1.67-1.67.75-1.67,1.67Zm-3.56-3.05l3.79,2.21m0-6.1l-3.79,2.21" fill="none" stroke="#000" stroke-linecap="round" stroke-linejoin="round" stroke-width="1.5"/>
</svg>