<?xml version="1.0" encoding="UTF-8"?>
<svg id="a" data-name="Layer 1" xmlns="http://www.w3.org/2000/svg" width="20" height="20" viewBox="0 0 20 20">
  <path d="m10,6c2.21,0,4,1.79,4,4s-1.79,4-4,4-4-1.79-4-4,1.79-4,4-4Zm0,2.29v1.71l.86.86m-3.44,2.2l.2,2.19c.05.59.55,1.04,1.14,1.04h2.47c.59,0,1.09-.45,1.14-1.04l.2-2.19m.01-6.11l-.2-2.19c-.05-.59-.55-1.04-1.14-1.04h-2.49c-.59,0-1.08.45-1.14,1.04l-.2,2.19" fill="none" stroke="#000" stroke-linecap="round" stroke-linejoin="round" stroke-width="1.5"/>
</svg>