<?xml version="1.0" encoding="UTF-8"?>
<svg id="a" data-name="Layer 1" xmlns="http://www.w3.org/2000/svg" width="20" height="20" viewBox="0 0 20 20">
  <path d="m16,9.74c0,.96-.08,1.92-.25,2.86-.13.53-.54.94-1.06,1.09-.94.25-4.69.25-4.69.25,0,0-3.75,0-4.69-.25-.51-.14-.91-.54-1.06-1.05-.17-.96-.26-1.93-.25-2.91,0-.97.08-1.93.25-2.89.13-.53.54-.94,1.06-1.09.94-.25,4.69-.25,4.69-.25,0,0,3.75,0,4.69.23.52.15.93.56,1.06,1.09.17.96.26,1.93.25,2.91Zm-7.23,1.78l3.14-1.78-3.14-1.78v3.57Z" fill="none" stroke="#000" stroke-linecap="round" stroke-linejoin="round" stroke-width="1.5"/>
</svg>