<svg id="Layer_1" data-name="Layer 1" xmlns="http://www.w3.org/2000/svg" width="35" height="30" viewBox="0 0 35 30"><defs><style>.cls-1{fill:#e3e3e3;}.cls-1,.cls-2,.cls-3,.cls-4{stroke:#757575;stroke-miterlimit:10;}.cls-2{fill:#eee;}.cls-3,.cls-5{fill:#fff;}.cls-4{fill:none;}.cls-6{fill:#757575;}</style></defs><title>icon__external-server</title><rect class="cls-1" x="0.5" y="18.5" width="34" height="7"/><polyline class="cls-2" points="33 11.5 34.5 11.5 34.5 18.5 0.5 18.5 0.5 11.5 10 11.5"/><path class="cls-3" d="M28,14.5h.5A4,4,0,0,0,30.4,7,5.49,5.49,0,0,0,20.21,3.31,3.47,3.47,0,0,0,18,2.5,3.5,3.5,0,0,0,14.5,6a4,4,0,0,0,.05.5H14.5a4,4,0,0,0,0,8H28Z"/><line class="cls-4" x1="6" y1="29.5" x2="29" y2="29.5"/><line class="cls-4" x1="4" y1="29.5" x2="5" y2="29.5"/><line class="cls-4" x1="2" y1="29.5" x2="3" y2="29.5"/><line class="cls-4" x1="32" y1="29.5" x2="33" y2="29.5"/><line class="cls-4" x1="30" y1="29.5" x2="31" y2="29.5"/><line class="cls-4" x1="17.5" y1="29" x2="17.5" y2="26"/><rect class="cls-5" x="3.5" y="14.5" width="1" height="1"/><polygon class="cls-6" points="5 14 3 14 3 16 5 16 5 14 5 14"/><rect class="cls-5" x="7.5" y="14.5" width="1" height="1"/><polygon class="cls-6" points="9 14 7 14 7 16 9 16 9 14 9 14"/><rect class="cls-5" x="3.5" y="21.5" width="1" height="1"/><polygon class="cls-6" points="5 21 3 21 3 23 5 23 5 21 5 21"/><rect class="cls-5" x="7.5" y="21.5" width="1" height="1"/><polygon class="cls-6" points="9 21 7 21 7 23 9 23 9 21 9 21"/></svg>