<svg xmlns="http://www.w3.org/2000/svg" viewBox="0 0 24 24"><path d="M3.53 2.47a.75.75 0 0 0-1.06 1.06zm5.94 8.06a.75.75 0 1 0 1.06-1.06zm-7-7 7 7 1.06-1.06-7-7z"/><path d="M10 6v4H6M2.47 20.47a.75.75 0 1 0 1.06 1.06zm8.06-5.94a.75.75 0 1 0-1.06-1.06zm-7 7 7-7-1.06-1.06-7 7z"/><path d="M10 18v-4H6M20.47 21.53a.75.75 0 1 0 1.06-1.06zm-5.94-8.06a.75.75 0 1 0-1.06 1.06zm7 7-7-7-1.06 1.06 7 7z"/><path d="M14 18v-4h4M21.53 3.53a.75.75 0 0 0-1.06-1.06zm-8.06 5.94a.75.75 0 1 0 1.06 1.06zm7-7-7 7 1.06 1.06 7-7z"/><path d="M14 6v4h4"/></svg>