<svg xmlns="http://www.w3.org/2000/svg" viewBox="0 0 24 24"><path d="m16 9.5 3.424 6.42c.354.663.319 1.481-.196 2.029-1.692 1.798-4.3 3.05-7.228 3.05s-5.536-1.252-7.228-3.05c-.515-.548-.55-1.366-.196-2.03L8 9.5"/><path d="M13.715 12.15c-.998-.477-1.715.336-1.715.336s-.716-.813-1.714-.336C9.076 12.73 8.99 14.994 12 16c3.01-1.006 2.923-3.271 1.714-3.85M6.5 11 2.988 9.049a1 1 0 0 1-.324-1.463l2.737-3.762A2 2 0 0 1 7.018 3H9v.5a3 3 0 1 0 6 0V3h1.982a2 2 0 0 1 1.617.824l2.736 3.762a1 1 0 0 1-.323 1.463l-3.512 1.95"/></svg>