<svg xmlns="http://www.w3.org/2000/svg" viewBox="0 0 24 24"><ellipse cx="12" cy="13" rx="6.5" ry="8"/><path d="M12.002 10c-1.959 0-3.77-.556-5.248-1.5m5.248 1.5c1.958 0 3.77-.556 5.248-1.5M12.002 10v3.5M5.5 13.5H3M21 13.5h-2.5M3.75 6.5a.75.75 0 0 0-1.5 0zm-1.5 0c0 2.127 1.117 4.322 3.627 4.74l.246-1.48C4.578 9.503 3.75 8.17 3.75 6.5zM4.75 21a.75.75 0 0 1-1.5 0zm-1.5 0c0-2.127 1.117-4.321 3.627-4.74l.246 1.48C5.578 17.997 4.75 19.33 4.75 21zM21.75 6.5a.75.75 0 0 0-1.5 0zm-1.5 0c0 1.67-.828 3.003-2.373 3.26l.246 1.48c2.51-.418 3.627-2.613 3.627-4.74zM20.75 21a.75.75 0 0 1-1.5 0zm-1.5 0c0-1.67-.828-3.003-2.373-3.26l.246-1.48c2.51.418 3.627 2.613 3.627 4.74zM9.5 5.5 7.5 3m7 2.5 2-2.5"/></svg>