<svg xmlns="http://www.w3.org/2000/svg" viewBox="0 0 24 24"><path d="M11.25 20a.75.75 0 0 0 1.5 0zm0-9v9h1.5v-9zm2-2c0 .69-.56 1.25-1.25 1.25v1.5A2.75 2.75 0 0 0 14.75 9zM12 10.25c-.69 0-1.25-.56-1.25-1.25h-1.5A2.75 2.75 0 0 0 12 11.75zM10.75 9c0-.69.56-1.25 1.25-1.25v-1.5A2.75 2.75 0 0 0 9.25 9zM12 7.75c.69 0 1.25.56 1.25 1.25h1.5A2.75 2.75 0 0 0 12 6.25zM16.959 6C17.619 6.87 18 7.898 18 9s-.381 2.13-1.041 3M7.04 6C6.381 6.87 6 7.898 6 9s.381 2.13 1.041 3M20.316 4C21.38 5.43 22 7.15 22 9s-.62 3.57-1.684 5M3.684 4C2.62 5.43 2 7.15 2 9s.62 3.57 1.684 5"/></svg>