<svg xmlns="http://www.w3.org/2000/svg" viewBox="0 0 24 24"><path d="M19.396 10.867a1.227 1.227 0 0 1 1.69 0c.467.45.467 1.18 0 1.63l-1.126 1.085m-.564-2.715 1.127-1.086c.467-.45.467-1.18 0-1.63a1.227 1.227 0 0 0-1.69 0l-.845.815m1.408 1.9L16.5 13.5m1.488-4.534c.466-.45.466-1.179 0-1.629a1.227 1.227 0 0 0-1.691 0l-4.768 4.596.003-1.763c.001-.773-.696-1.374-1.493-1.287-.61.066-1.098.522-1.186 1.108L8.5 15 7 16.84m10.988-7.874L15.5 11.5M12.353 22 14 20.621h1.197a2 2 0 0 0 1.383-.555l5.07-4.854c.467-.45.467-1.18 0-1.63a1.227 1.227 0 0 0-1.69 0M18 15.5l1.96-1.918M13.484 4.097a1.215 1.215 0 0 0 0-1.737 1.264 1.264 0 0 0-1.767 0L6.733 7.265l.004-1.884c.001-.825-.726-1.465-1.56-1.373a1.4 1.4 0 0 0-1.24 1.182L3.5 11 2 12.5m11.484-8.403.883-.869a1.264 1.264 0 0 1 1.767 0c.244.24.366.555.366.87m-3.016 0L11.5 6"/></svg>