<svg xmlns="http://www.w3.org/2000/svg" viewBox="0 0 24 24"><path d="M17.172 9.156c.47-.493.47-1.293 0-1.786a1.166 1.166 0 0 0-1.704 0l-4.523 4.74.003-1.933c.001-.848-.7-1.506-1.505-1.411-.615.073-1.106.572-1.195 1.214l-.576 4.18c-.13.95-.196 1.424-.164 1.88a4.3 4.3 0 0 0 .618 1.95c.234.384.556.722 1.202 1.399 1.23 1.29 1.845 1.935 2.524 2.25a3.84 3.84 0 0 0 3.262-.005c.679-.318 1.296-.965 2.53-2.259l3.503-3.67c.47-.494.47-1.293 0-1.786a1.166 1.166 0 0 0-1.704 0m-2.271-4.763 1.136-1.19a1.166 1.166 0 0 1 1.703 0c.47.492.47 1.292 0 1.785l-1.136 1.19m-1.703-1.785-2.556 2.679m4.26-.893a1.166 1.166 0 0 1 1.703 0c.47.493.47 1.293 0 1.786l-1.136 1.19m-.568-2.976L16.32 13.62m3.123.298-1.42 1.488"/><path d="M12.274 4.194a1.336 1.336 0 0 0 0-1.818 1.173 1.173 0 0 0-1.722 0l-4.57 4.825.003-1.968c0-.863-.709-1.533-1.521-1.436-.622.074-1.119.582-1.208 1.236l-.582 4.254c-.132.965-.198 1.448-.166 1.911.049.707.263 1.389.624 1.985.237.391.563.735 1.215 1.424L4.72 15m7.554-10.806 1.148-1.212a1.173 1.173 0 0 1 1.721 0 1.336 1.336 0 0 1 0 1.818m-2.87-.606-1.762 1.86"/></svg>