<svg xmlns="http://www.w3.org/2000/svg" viewBox="0 0 24 24"><path d="M17.478 8q.021-.247.022-.5a5.5 5.5 0 0 0-10.98-.477M17.478 8a5.47 5.47 0 0 1-.868 2.5m.868-2.5A4.504 4.504 0 0 1 22 12.5c0 1.403-1 3-2 3.5M6.52 7.023A5 5 0 0 0 4 16m2.52-8.977Q6.757 7 7 7c1.126 0 2.165.372 3 1M10.53 16.47a.75.75 0 1 0-1.06 1.06zm.97 2.03-.53.53a.75.75 0 0 0 1.106-.05zm3.076-2.52a.75.75 0 0 0-1.152-.96zM17.75 17A5.75 5.75 0 0 0 12 11.25v1.5A4.25 4.25 0 0 1 16.25 17zM12 11.25A5.75 5.75 0 0 0 6.25 17h1.5A4.25 4.25 0 0 1 12 12.75zM6.25 17A5.75 5.75 0 0 0 12 22.75v-1.5A4.25 4.25 0 0 1 7.75 17zM12 22.75A5.75 5.75 0 0 0 17.75 17h-1.5A4.25 4.25 0 0 1 12 21.25zm-2.53-5.22 1.5 1.5 1.06-1.06-1.5-1.5zm2.606 1.45 2.5-3-1.152-.96-2.5 3z"/></svg>