<svg xmlns="http://www.w3.org/2000/svg" viewBox="0 0 24 24"><path d="M17.478 8.78h.022c2.485 0 4.5 1.941 4.5 4.335 0 1.703-1.018 3.176-2.5 3.885m-2.022-8.22q.021-.238.022-.481C17.5 5.372 15.038 3 12 3 9.123 3 6.762 5.128 6.52 7.839m10.958.941a5.17 5.17 0 0 1-1.235 2.89M6.52 7.84C3.984 8.07 2 10.129 2 12.634 2 14.566 3.181 16.233 4.886 17M6.52 7.839q.237-.022.48-.022c1.126 0 2.165.358 3 .963M10.8 14l1.2 1.143m0 0 1.2 1.143M12 15.143 13.2 14M12 15.143l-1.2 1.143m3.8 2.428 1.2 1.143m0 0L17 21m-1.2-1.143 1.2-1.143m-1.2 1.143L14.6 21M7 18.714l1.2 1.143m0 0L9.4 21m-1.2-1.143 1.2-1.143m-1.2 1.143L7 21"/></svg>