<svg xmlns="http://www.w3.org/2000/svg" viewBox="0 0 24 24"><path d="M21.999 14v1.5a3 3 0 0 1-3 3h-14a3 3 0 0 1-3-3v-10a3 3 0 0 1 3-3h5.5M10.999 15.5h2M11.999 18.5v3m-4 0h8"/><path d="M18 3.5v-1m0 1c-1.274 0-2.389.68-3.001 1.697m3-1.697c1.275 0 2.39.68 3.002 1.697m-6.002 0-1-.697m1 .697a3.5 3.5 0 0 0-.5 1.803c0 .66.183 1.276.5 1.803m6.002-3.606 1-.697m-1 .697c.317.527.499 1.144.499 1.803 0 .66-.182 1.276-.499 1.803m-3 1.697v1m0-1a3.5 3.5 0 0 1-3.002-1.697m3.002 1.697c1.273 0 2.388-.68 3-1.697m-6.002 0L14 9.5m7.002-.697 1 .697"/></svg>