<svg xmlns="http://www.w3.org/2000/svg" viewBox="0 0 24 24"><path d="M7 3H5a2 2 0 0 0-2 2v14a2 2 0 0 0 2 2h13a2 2 0 0 0 2-2v-4"/><path d="m14 3 .295-.69a.75.75 0 0 0-.59 0zM7 6l-.295-.69a.75.75 0 0 0 0 1.38zm14 0 .295.69a.75.75 0 0 0 0-1.38zm-7 3-.295.69a.75.75 0 0 0 .59 0zm-3.256-1.093-.093-.744-1.488.186.093.744zm8 .186.093-.744-1.488-.186-.093.744zM21.25 6.5a.75.75 0 0 0-1.5 0zm-1.5 3.77a.75.75 0 0 0 1.5 0zm-8.764 1.952-.296.689zm2.719-9.911-7 3 .59 1.378 7-3zm7.59 3-7-3-.59 1.378 7 3zm-7 3-7-3-.59 1.378 7 3zm6.41-3-7 3 .59 1.378 7-3zM9.255 8.093l.434 3.469 1.489-.186-.434-3.469zm1.435 4.818c.687.295 2.098.839 3.31.839v-1.5c-.874 0-2.032-.423-2.718-.717zm6.566-5.004-.434 3.469 1.489.186.433-3.469zm-.538 3.626c-.686.294-1.844.717-2.718.717v1.5c1.212 0 2.623-.544 3.31-.839zM19.75 6.5v3.77h1.5V6.5zm-2.928 4.876c-.01.087-.06.137-.104.157l.592 1.378c.57-.245.929-.773 1-1.349zm-7.133.186a1.69 1.69 0 0 0 1.001 1.349l.592-1.378c-.045-.02-.093-.07-.104-.157z"/></svg>