<svg xmlns="http://www.w3.org/2000/svg" viewBox="0 0 24 24"><path d="M9 2H3a1 1 0 0 0-1 1v6a1 1 0 0 0 1 1h6a1 1 0 0 0 1-1V3a1 1 0 0 0-1-1M9 14H3a1 1 0 0 0-1 1v6a1 1 0 0 0 1 1h6a1 1 0 0 0 1-1v-6a1 1 0 0 0-1-1M21 14h-6a1 1 0 0 0-1 1v6a1 1 0 0 0 1 1h6a1 1 0 0 0 1-1v-6a1 1 0 0 0-1-1M18 8.857V10m0-1.143a2.93 2.93 0 0 1-2.427-1.272M18 8.857a2.93 2.93 0 0 0 2.427-1.272M18 3.143a2.93 2.93 0 0 1 2.427 1.272M18 3.143a2.93 2.93 0 0 0-2.427 1.272M18 3.143V2m3.5 1.778-1.073.637M14.5 8.222l1.073-.637M14.5 3.778l1.073.637M21.5 8.222l-1.073-.637m0-3.17a2.803 2.803 0 0 1 0 3.17m-4.854-3.17a2.803 2.803 0 0 0 0 3.17"/></svg>