<svg xmlns="http://www.w3.org/2000/svg" viewBox="0 0 24 24"><path d="M18 9.357V10.5m0-1.143a2.93 2.93 0 0 1-2.427-1.272M18 9.357a2.93 2.93 0 0 0 2.427-1.272M18 3.643a2.93 2.93 0 0 1 2.427 1.272M18 3.643a2.93 2.93 0 0 0-2.427 1.272M18 3.643V2.5m3.5 1.778-1.073.637M14.5 8.722l1.073-.637M14.5 4.278l1.073.637M21.5 8.722l-1.073-.637m0-3.17a2.803 2.803 0 0 1 0 3.17m-4.854-3.17a2.803 2.803 0 0 0 0 3.17"/><circle cx="6.25" cy="6.25" r="4.25"/><circle cx="17.75" cy="17.75" r="4.25"/><circle cx="6.25" cy="17.75" r="4.25"/></svg>