<svg xmlns="http://www.w3.org/2000/svg" viewBox="0 0 24 24"><path d="M20.198 3.002H3.802c-.75 0-1.126 0-1.386.177a1 1 0 0 0-.31.338c-.153.273-.116.64-.041 1.376.125 1.228.187 1.841.513 2.28.163.219.369.403.606.54.476.277 1.102.277 2.355.277h12.922c1.253 0 1.879 0 2.355-.277.237-.137.443-.321.606-.54.326-.439.388-1.052.513-2.28.075-.736.112-1.103-.04-1.376a1 1 0 0 0-.311-.338c-.26-.177-.636-.177-1.386-.177M10 11.002h4M14.54 15.978l2.727-.053c1.086-.02 3.237.247 3.237 2.502 0 2.34-2.249 2.57-3.262 2.57h-9.19c-2.128 0-5.048-.47-5.048-4.487V7.996m11.536 7.982a.77.77 0 0 1 .232-.539l1.714-1.453m-1.946 1.992a.77.77 0 0 0 .234.578l1.712 1.415m4.495-9.975v5.028"/></svg>