<svg xmlns="http://www.w3.org/2000/svg" viewBox="0 0 24 24"><path d="M3.5 3h3a.5.5 0 0 1 .5.5v3a.5.5 0 0 1-.5.5h-3a.5.5 0 0 1-.5-.5v-3a.5.5 0 0 1 .5-.5M10.5 3h3a.5.5 0 0 1 .5.5v3a.5.5 0 0 1-.5.5h-3a.5.5 0 0 1-.5-.5v-3a.5.5 0 0 1 .5-.5M17.5 3h3a.5.5 0 0 1 .5.5v3a.5.5 0 0 1-.5.5h-3a.5.5 0 0 1-.5-.5v-3a.5.5 0 0 1 .5-.5M3.5 10h3a.5.5 0 0 1 .5.5v3a.5.5 0 0 1-.5.5h-3a.5.5 0 0 1-.5-.5v-3a.5.5 0 0 1 .5-.5M10.5 10h3a.5.5 0 0 1 .5.5v3a.5.5 0 0 1-.5.5h-3a.5.5 0 0 1-.5-.5v-3a.5.5 0 0 1 .5-.5M17.5 10h3a.5.5 0 0 1 .5.5v3a.5.5 0 0 1-.5.5h-3a.5.5 0 0 1-.5-.5v-3a.5.5 0 0 1 .5-.5M3.5 17h3a.5.5 0 0 1 .5.5v3a.5.5 0 0 1-.5.5h-3a.5.5 0 0 1-.5-.5v-3a.5.5 0 0 1 .5-.5M10.5 17h3a.5.5 0 0 1 .5.5v3a.5.5 0 0 1-.5.5h-3a.5.5 0 0 1-.5-.5v-3a.5.5 0 0 1 .5-.5M17.5 17h3a.5.5 0 0 1 .5.5v3a.5.5 0 0 1-.5.5h-3a.5.5 0 0 1-.5-.5v-3a.5.5 0 0 1 .5-.5"/></svg>