<svg xmlns="http://www.w3.org/2000/svg" viewBox="0 0 24 24"><path d="M15.487 21.242a.75.75 0 0 0 0 1.5zm4.33-.886-.738-.136zm1.07-12.529L21.3 7.2zm-9.985-5.126-.405-.63zM3.124 7.7l-.406-.63zm1.02 12.653-.739.132zm6.828 1.64v-.75zm.25-3.992v2.992h1.5V18zm-.25 3.242-4.859.006.002 1.5 4.858-.006zM3.528 8.33l7.778-4.998-.81-1.262-7.779 4.998zM21.02 9.728 19.079 20.22l1.475.273L22.496 10zm-8.353-6.39 7.808 5.117L21.3 7.2 13.49 2.084zm-7.787 16.88L2.974 9.604l-1.476.265 1.907 10.616zm12.97 1.024h-2.364v1.5h2.363zm1.228-1.022a1.25 1.25 0 0 1-1.229 1.022v1.5a2.75 2.75 0 0 0 2.704-2.25zM22.495 10a2.75 2.75 0 0 0-1.197-2.8l-.822 1.255c.422.276.636.777.544 1.273zM11.308 3.332a1.25 1.25 0 0 1 1.361.007l.822-1.255a2.75 2.75 0 0 0-2.994-.014zM2.718 7.068a2.75 2.75 0 0 0-1.22 2.8l1.476-.265c-.089-.498.13-1 .555-1.273zm3.395 14.18a1.25 1.25 0 0 1-1.232-1.03l-1.476.266a2.75 2.75 0 0 0 2.71 2.264zm5.108-.256a.25.25 0 0 1-.25.25l.002 1.5a1.75 1.75 0 0 0 1.748-1.75z"/><path d="M10 12H8.5v2.697a1 1 0 0 0 .168.555l1.535 2.303a1 1 0 0 0 .832.445h1.93a1 1 0 0 0 .832-.445l1.535-2.303a1 1 0 0 0 .168-.555V12H14m-4 0v-2m0 2h4m0 0v-2"/></svg>