<svg xmlns="http://www.w3.org/2000/svg" viewBox="0 0 24 24"><path d="M9.337 3.833 9.037 2h-2.07l-.302 1.833a3.6 3.6 0 0 0-.912.536l-1.718-.653L3 5.535l1.417 1.183a3.8 3.8 0 0 0 0 1.066L3.002 8.966l1.035 1.819 1.717-.653c.274.22.58.402.911.535l.301 1.833h2.07l.301-1.833c.33-.133.637-.314.911-.534l1.715.652 1.035-1.82-1.413-1.18a3.8 3.8 0 0 0 0-1.069L13 5.535l-1.035-1.82-1.716.653a3.6 3.6 0 0 0-.912-.535M17.337 13.333l-.3-1.833h-2.07l-.302 1.833a3.6 3.6 0 0 0-.912.536l-1.718-.653L11 15.035l1.417 1.183a3.8 3.8 0 0 0 0 1.066l-1.415 1.182 1.035 1.819 1.717-.653c.274.22.58.402.911.535L14.966 22h2.07l.301-1.833c.33-.133.637-.314.911-.534l1.715.652 1.035-1.82-1.413-1.18a3.8 3.8 0 0 0 0-1.069L21 15.034l-1.035-1.818-1.716.652a3.6 3.6 0 0 0-.912-.535"/><path d="M16.75 16.75a.75.75 0 1 1-1.5 0 .75.75 0 0 1 1.5 0M8.75 7.25a.75.75 0 1 1-1.5 0 .75.75 0 0 1 1.5 0"/></svg>