<svg xmlns="http://www.w3.org/2000/svg" viewBox="0 0 24 24"><path d="M9.504 19.092s-1.504 0-3.004-2.02m3.441.772c0-.367.108-.687.283-.975.12-.198.037-.479-.179-.54C8.255 15.814 7 14.988 7 12.248c0-.712.224-1.382.617-1.964.195-.29.19-.264.108-.606a3.7 3.7 0 0 1 .006-1.83c.053-.196.166-.31.37-.287.266.028.727.155 1.409.6.268.175.402.263.52.282.118.02.276-.021.592-.103A5.4 5.4 0 0 1 12 8.169c.501 0 .946.06 1.378.172.316.082.474.123.592.103s.252-.107.52-.282c.682-.445 1.143-.572 1.408-.6.205-.022.318.091.371.286.16.593.15 1.228.006 1.83-.082.343-.087.317.108.607.393.582.617 1.252.617 1.964 0 2.74-1.255 3.566-3.045 4.08-.216.061-.298.342-.179.54.175.288.283.608.283.975V22C18.594 21.04 22 16.976 22 12.107 22 6.525 17.523 2 12 2S2 6.525 2 12.107C2 16.976 5.406 21.041 9.941 22z"/></svg>