<svg xmlns="http://www.w3.org/2000/svg" viewBox="0 0 24 24"><path d="M12 21.25a.75.75 0 0 0 0 1.5zM5.583 5.814a.75.75 0 1 0-1.166-.943zm1-2.922a.75.75 0 0 0 .834 1.247zm14.313 17.826a.75.75 0 1 0-1.23-.86zM14.25 11.5a.75.75 0 0 0 1.5 0zm5.402 4.379a.75.75 0 1 0 1.223.868zM16 10.75h1v-1.5h-1zm1 6.5h-1v1.5h1zm0-6.5A3.25 3.25 0 0 1 20.25 14h1.5A4.75 4.75 0 0 0 17 9.25zm-1.25.25a.25.25 0 0 1 .25-.25v-1.5A1.75 1.75 0 0 0 14.25 11zm-1.5 6c0 .966.784 1.75 1.75 1.75v-1.5a.25.25 0 0 1-.25-.25zm-4.5 0v-6h-1.5v6zM8 9.25H7v1.5h1zm-1 9.5h1v-1.5H7zM2.25 14A4.75 4.75 0 0 0 7 18.75v-1.5A3.25 3.25 0 0 1 3.75 14zM7 9.25A4.75 4.75 0 0 0 2.25 14h1.5A3.25 3.25 0 0 1 7 10.75zM9.75 11A1.75 1.75 0 0 0 8 9.25v1.5a.25.25 0 0 1 .25.25zm-1.5 6a.25.25 0 0 1-.25.25v1.5A1.75 1.75 0 0 0 9.75 17zm-4.5-3v-3h-1.5v3zm16.5-3v3h1.5v-3zM17 21.25h-5v1.5h5zm-5-18.5A8.25 8.25 0 0 1 20.25 11h1.5c0-5.385-4.365-9.75-9.75-9.75zM3.75 11c0-1.965.686-3.768 1.833-5.186l-1.166-.943A9.7 9.7 0 0 0 2.25 11zm3.667-6.861A8.2 8.2 0 0 1 12 2.75v-1.5a9.7 9.7 0 0 0-5.417 1.642zm12.25 15.72A3.25 3.25 0 0 1 17 21.25v1.5a4.75 4.75 0 0 0 3.896-2.032zm-1.854-2.711q-.39.1-.813.102v1.5q.615-.002 1.187-.15zM15.75 17v-2h-1.5v2zm0-5.5V11h-1.5v.5zm4.5 2.5c0 .701-.221 1.349-.598 1.879l1.223.868c.551-.775.875-1.724.875-2.747zM2 2l20 20"/></svg>