<svg xmlns="http://www.w3.org/2000/svg" viewBox="0 0 24 24"><path d="M4.515 9s.69 2.002 1.497 2.5c-1.688.832-2.386 2.658-1.817 4.432.31.971.843 2.374 1.319 3.586.467 1.191.7 1.787 1.21 2.134.51.348 1.16.348 2.462.348h5.628c1.301 0 1.952 0 2.462-.348.51-.347.743-.943 1.21-2.134.476-1.212 1.008-2.615 1.32-3.586.568-1.774-.13-3.6-1.818-4.432.808-.498 1.497-2.5 1.497-2.5h-2.324c-.952 0-2.253.336-1.378 3.164 1.166 3.768.12 4.915-1.365 5.085s-3.429-1.257-2.082-3.746C13.874 10.663 11.755 9 10.63 9zM13.999 3.026C13.999 2.176 12.828 2 12 2s-1.999.176-1.999 1.026c0 .496.4 1.112.896 1.54H8.034C6.808 4.565 5.455 5.83 5 7h14c-.455-1.169-1.808-2.435-3.034-2.435h-2.863C13.6 4.138 14 3.522 14 3.026"/></svg>