<svg xmlns="http://www.w3.org/2000/svg" viewBox="0 0 24 24"><circle cx="4" cy="5" r="2"/><circle cx="20" cy="7" r="2"/><path d="m16.65 11.426.66-.355zM19 17l.156.733A.75.75 0 0 0 19.75 17zM9.25 8a.75.75 0 0 0 1.5 0zm-4.283 9-.632.405a.75.75 0 0 0 .43.317zm11.022-5.22c.358.667.692 1.17.985 1.59.303.435.525.73.715 1.05.335.563.56 1.185.56 2.58h1.5c0-1.605-.27-2.505-.77-3.347-.229-.383-.51-.761-.775-1.14a14 14 0 0 1-.894-1.442zm-4.008 6.044c-.443-1.834-.275-4.304.734-6.473.999-2.146 2.803-3.967 5.637-4.62l-.337-1.462c-3.353.773-5.498 2.952-6.66 5.45-1.151 2.474-1.356 5.29-.832 7.457zm6.282-10.536c-.88.294-1.705.866-2.193 1.647-.507.813-.626 1.831-.081 2.845l1.321-.71c-.27-.502-.213-.946.033-1.342.267-.427.775-.81 1.394-1.016zM10.75 8c0-1.354-.858-2.306-1.737-2.878-.87-.568-1.916-.872-2.634-.872v1.5c.386 0 1.15.196 1.815.628C8.85 6.806 9.25 7.354 9.25 8zm-6.32-.468c.927.92 1.036 1.483.99 1.853-.056.464-.365.904-.876 1.615-.464.647-1.056 1.48-1.238 2.555-.187 1.113.077 2.362 1.03 3.85l1.262-.81c-.809-1.262-.923-2.138-.812-2.79.116-.69.498-1.264.976-1.93.432-.601 1.034-1.38 1.148-2.307.125-1.02-.333-2.02-1.422-3.1zm.336 10.19c2.661.741 4.824 1.057 7.058 1.026 2.223-.032 4.485-.408 7.332-1.015l-.313-1.466c-2.824.601-4.97.952-7.04.981-2.061.03-4.079-.259-6.635-.97zM4 20c5.963 1.452 9.518 1.209 16 0"/></svg>