<svg xmlns="http://www.w3.org/2000/svg" viewBox="0 0 24 24"><path d="m16.658 13.012 4.74 3.545A1.5 1.5 0 0 1 22 17.758v3.766M7.342 13.012l-4.74 3.545A1.5 1.5 0 0 0 2 17.758v3.766M14 15.509l1.358 5.88a.5.5 0 0 1-.487.613H9.123a.5.5 0 0 1-.488-.609l1.307-5.884"/><path d="M7.482 11.473c-.192-1.848.492-3.657 1.343-4.546.19-.198.42-.357.682-.441.331-.107.808-.142 1.246.312.606.627 1.08.755 1.31.719.167.085.791-.219 1.148-.662.357-.442.848-.482 1.037-.454 1.646.351 2.13 2.677 2.26 3.802.2 3.046-1.19 4.582-2.412 5.225-.635.333-1.349.55-2.065.574-1.184.042-2.855-.47-3.94-2.505a5.5 5.5 0 0 1-.595-1.895m-.014-.129.014.129m-.014-.129q.009.063.014.129m0 0c.087.992-.366 2.676-2.513 2.341-1.213-.189-2.344-2.3-.638-3.573-.586-.527-1.235-1.6-.702-2.713C4.36 6.16 5.518 6 5.97 6c.03-.988.806-3.299 4.48-3.871m6.054 9.267c-.139.967.315 2.898 2.559 2.548 1.212-.189 2.344-2.3.638-3.573.586-.527 1.234-1.6.701-2.713C19.686 6.16 18.529 6 18.077 6c-.03-.988-.806-3.298-4.48-3.87-3.644-.568-5.981.882-6.683 1.7"/></svg>