<svg xmlns="http://www.w3.org/2000/svg" viewBox="0 0 24 24"><path d="m7 5.548.77-.876a1.965 1.965 0 0 1 2.96 0L16 10.67a2.02 2.02 0 0 1 0 2.66l-5.27 5.998a1.965 1.965 0 0 1-2.96 0L7 18.452"/><path d="M14 4.149a1.965 1.965 0 0 1 2.23.523l5.27 5.998a2.02 2.02 0 0 1 0 2.66l-5.27 5.998a1.965 1.965 0 0 1-2.23.524"/><path d="m5 7.824 2.77-3.152a1.965 1.965 0 0 1 2.96 0L16 10.67a2.02 2.02 0 0 1 0 2.66l-5.27 5.998a1.965 1.965 0 0 1-2.96 0L5 16.176"/><path d="M14 4.149a1.965 1.965 0 0 1 2.23.523l5.27 5.998a2.02 2.02 0 0 1 0 2.66l-5.27 5.998a1.965 1.965 0 0 1-2.23.524M2 12h7"/></svg>