<svg xmlns="http://www.w3.org/2000/svg" viewBox="0 0 24 24"><path d="m20 14.5 1.872 5.136c.485 1.144-.47 2.364-1.85 2.364H3.978c-1.38 0-2.336-1.22-1.851-2.364L4 14.5m16 0H4m16 0v-1m-16 1V5a2 2 0 0 1 2-2h4.5M18.001 3V2m0 1c-1.274 0-2.389.68-3.001 1.697M18.001 3c1.274 0 2.388.68 3 1.697m-6.001 0L14 4m1 .697a3.5 3.5 0 0 0-.5 1.803c0 .66.184 1.276.5 1.803m6.002-3.606 1-.697m-1 .697c.317.527.5 1.144.5 1.803 0 .66-.183 1.276-.5 1.803m-3 1.697v1m0-1A3.5 3.5 0 0 1 15 8.303M18 10c1.274 0 2.389-.68 3.001-1.697m-6.001 0L14 9m7.001-.697 1 .697"/></svg>