<svg xmlns="http://www.w3.org/2000/svg" viewBox="0 0 24 24"><path d="M18.362 6c.518 1.667-.585 3-.585 3s-1.62-.334-2.139-2c-.518-1.667.585-3 .585-3s1.62.334 2.139 2M20.95 13.777c-1.314 1.21-2.922.536-2.922.536s-.294-1.882 1.021-3.09c1.315-1.21 2.923-.536 2.923-.536s.294 1.882-1.021 3.09M16.926 19.797C15.26 19.126 15 17.243 15 17.243s1.407-1.212 3.074-.54S20 19.257 20 19.257s-1.407 1.212-3.074.54M17.564 9c.282.842.436 1.763.436 2.727 0 2.33-1.595 4.072-3 5.273M5.638 6c-.518 1.667.585 3 .585 3s1.62-.334 2.139-2c.518-1.667-.585-3-.585-3s-1.62.334-2.139 2M3.049 13.777c1.315 1.21 2.923.536 2.923.536s.294-1.882-1.021-3.09c-1.315-1.21-2.923-.536-2.923-.536s-.294 1.882 1.021 3.09M7.074 19.797C8.74 19.126 9 17.243 9 17.243s-1.407-1.212-3.074-.54S4 19.257 4 19.257s1.407 1.212 3.074.54M6.436 9A8.6 8.6 0 0 0 6 11.727C6 14.057 7.595 15.8 9 17"/></svg>