<svg xmlns="http://www.w3.org/2000/svg" viewBox="0 0 24 24"><path d="M12 2c-4.694 0-8.5 3.618-8.5 8.08 0 4.861 4.72 7.29 7.61 10.726.457.544 1.343.559 1.811.023 2.944-3.368 7.579-5.982 7.579-10.748C20.5 5.618 16.694 2 12 2"/><path d="M11.621 6.727a.43.43 0 0 1 .758 0l.93 1.787a.42.42 0 0 0 .311.222l2.021.315a.414.414 0 0 1 .235.705l-1.447 1.42a.41.41 0 0 0-.12.36l.32 1.982c.054.336-.304.59-.613.436l-1.823-.91a.43.43 0 0 0-.386 0l-1.823.91c-.31.154-.667-.1-.613-.436l.32-1.983a.41.41 0 0 0-.12-.358l-1.446-1.42a.414.414 0 0 1 .234-.706l2.02-.315a.42.42 0 0 0 .313-.222z"/></svg>