<svg xmlns="http://www.w3.org/2000/svg" viewBox="0 0 24 24"><path d="M13.097 11.569 6.205 4.648a1.554 1.554 0 0 1 .001-2.194 1.545 1.545 0 0 1 2.189 0L16.22 10.3m0 0c1.703 1.743 2.449 2.936 2.72 4.72a5.3 5.3 0 0 1-.184 2.38c-.626 1.98-1.761 3.262-3.555 4.12a4.8 4.8 0 0 1-2.043.48c-2.296.013-3.816-1.01-5.164-2.28L5.44 17.106a1.547 1.547 0 0 1 .031-2.192 1.537 1.537 0 0 1 2.138 0l.431.417m8.18-5.031c-1.368-1.764-.865-3.812.687-4.94.276-.201.342-.61.065-.809-.876-.629-1.992-.92-2.907-.38C12.765 4.941 12.5 6 12.5 6m-1.61 7.788-2.518-2.555a1.53 1.53 0 0 1 .026-2.174 1.52 1.52 0 0 1 2.121.004l2.571 2.504m-3.675 5.174-1.375-1.41m0 0-1.131-1.16a1.55 1.55 0 0 1 .032-2.195 1.54 1.54 0 0 1 2.14-.004l.411.396"/></svg>