<svg xmlns="http://www.w3.org/2000/svg" viewBox="0 0 24 24"><path d="m11 11-7.586 7.586a1.414 1.414 0 0 0 2 2L13 13m-2-2 2 2m-2-2 .75-.75M13 13l.75-.75m-2-2 .75-.75 2 2-.75.75m-2-2 2 2M18.238 3.167a.29.29 0 0 1 .524 0l.392.84c.173.37.47.666.84.839l.839.392a.29.29 0 0 1 0 .524l-.84.392c-.37.173-.666.47-.839.84l-.392.839a.29.29 0 0 1-.524 0l-.392-.84a1.74 1.74 0 0 0-.84-.839l-.839-.392a.29.29 0 0 1 0-.524l.84-.392c.37-.173.666-.47.839-.84zM18.238 14.167a.29.29 0 0 1 .524 0l.392.84c.173.37.47.666.84.839l.839.392a.29.29 0 0 1 0 .524l-.84.392c-.37.173-.666.47-.839.84l-.392.839a.29.29 0 0 1-.524 0l-.392-.84a1.74 1.74 0 0 0-.84-.839l-.839-.392a.29.29 0 0 1 0-.524l.84-.392c.37-.173.666-.47.839-.84zM7.238 3.167a.29.29 0 0 1 .524 0l.392.84c.173.37.47.666.84.839l.839.392a.29.29 0 0 1 0 .524l-.84.392c-.37.173-.666.47-.839.84l-.392.839a.29.29 0 0 1-.524 0l-.392-.84a1.74 1.74 0 0 0-.84-.839l-.839-.392a.29.29 0 0 1 0-.524l.84-.392c.37-.173.666-.47.839-.84z"/></svg>