<svg xmlns="http://www.w3.org/2000/svg" viewBox="0 0 24 24"><path d="m16.692 9.803 1.791-1.792a1.764 1.764 0 0 0-2.494-2.494l-1.792 1.791m2.495 2.495-10.68 10.68a1.764 1.764 0 0 1-2.495-2.494l10.68-10.68m2.495 2.494-2.495-2.495M17.974 14.022c.006-.03.046-.03.052 0a3.79 3.79 0 0 0 2.953 2.952c.028.006.028.046 0 .052a3.79 3.79 0 0 0-2.953 2.953c-.006.028-.046.028-.052 0a3.79 3.79 0 0 0-2.953-2.953c-.028-.006-.028-.046 0-.052a3.79 3.79 0 0 0 2.953-2.953M8.12 3.31c.085-.413.675-.413.76 0a2.32 2.32 0 0 0 1.81 1.81c.413.085.413.675 0 .76a2.32 2.32 0 0 0-1.81 1.81c-.085.413-.675.413-.76 0a2.32 2.32 0 0 0-1.81-1.81c-.413-.085-.413-.675 0-.76a2.32 2.32 0 0 0 1.81-1.81"/></svg>