<svg xmlns="http://www.w3.org/2000/svg" viewBox="0 0 24 24"><path d="M11 19H4a2 2 0 0 1-2-2V5a2 2 0 0 1 2-2h16a2 2 0 0 1 2 2v4.5"/><path d="m22 6-9.106 4.553a2 2 0 0 1-1.788 0L2 6M22.003 21v.75a.75.75 0 0 0 .75-.75zM15 21h-.75c0 .414.336.75.75.75zm7.003-.75H15v1.5h7.003zM15.75 21a2.75 2.75 0 0 1 2.752-2.75v-1.5A4.25 4.25 0 0 0 14.25 21zm2.752-2.75A2.75 2.75 0 0 1 21.253 21h1.5a4.25 4.25 0 0 0-4.251-4.25zm1-4.5a1 1 0 0 1-1.001 1v1.5a2.5 2.5 0 0 0 2.5-2.5zm-1.001 1a1 1 0 0 1-1.001-1H16a2.5 2.5 0 0 0 2.5 2.5zm-1.001-1a1 1 0 0 1 1-1v-1.5a2.5 2.5 0 0 0-2.5 2.5zm1-1a1 1 0 0 1 1.002 1h1.5a2.5 2.5 0 0 0-2.501-2.5z"/></svg>