<svg xmlns="http://www.w3.org/2000/svg" viewBox="0 0 24 24"><path d="M17.5 11c-2.485 0-4.5 1.99-4.5 4.444 0 1.404.563 2.495 1.688 3.47.722.626 1.985 1.907 2.64 2.829a.218.218 0 0 0 .35.004c.673-.91 1.912-2.207 2.634-2.833 1.125-.975 1.688-2.066 1.688-3.47C22 12.99 19.985 11 17.5 11M13.535 10a3.5 3.5 0 1 0-2.445 3.338"/><path d="M12.062 19.396c-.727.822-1.406 1.654-1.885 2.342a.21.21 0 0 1-.347-.005C8.715 20.048 6.337 17.575 5 16.39c-2-1.772-3-3.756-3-6.308C2 5.618 5.582 2 10 2c3.973 0 7.27 2.926 7.894 6.761M17.5 15.5h.009"/></svg>