<svg xmlns="http://www.w3.org/2000/svg" viewBox="0 0 24 24"><path d="m17.973 21.674.35-1.344 1.309-.988a3.7 3.7 0 0 0 1.348-2.027l.958-3.67c.258-.989-.313-2.006-1.277-2.27l-.872-.24M9.251 19.273l.35-1.343-2.464-7.075a1.64 1.64 0 0 1 .503-1.958 1.543 1.543 0 0 1 2.224.388l1.373 2.375 2.337-8.956c.194-.742.937-1.182 1.66-.983s1.15.961.957 1.703l-1.168 4.478m0 0-.468 1.791m.468-1.791.872.24c.963.265 1.535 1.282 1.277 2.271l-.234.896m2.384 1.615.233-.895c.258-.99-.313-2.006-1.277-2.271l-.872-.24M5 6.674 2.535 9.139M2 6.674v3h3m1.986-5.006 2.562-2.543m-2.562-.451H10v2.994"/></svg>