<svg xmlns="http://www.w3.org/2000/svg" viewBox="0 0 24 24"><path d="M12 3c-.724 0-1.447.024-2.155.07-4.191.279-7.53 3.658-7.805 7.9a20 20 0 0 0 0 2.52c.1 1.546.785 2.976 1.591 4.184.468.846.16 1.901-.328 2.823-.352.665-.527.997-.386 1.238.14.24.456.247 1.086.263 1.247.03 2.088-.323 2.755-.814.379-.278.568-.418.698-.434s.388.09.9.3c.462.19.998.307 1.49.34 1.426.095 2.92.095 4.35 0C18.216 21.123 21.501 18 22 14"/><path d="M16.5 5.5H15V11h7V5.5h-5.5m0 0V4a2 2 0 0 1 3.732-1M11.996 12.5h.008M8 12.5h.009"/></svg>