<svg xmlns="http://www.w3.org/2000/svg" viewBox="0 0 24 24"><path d="M21 9c-.5-3.757-3.648-6.681-7.438-6.933a32 32 0 0 0-4.124 0c-3.974.264-7.14 3.465-7.4 7.484a19 19 0 0 0 0 2.388c.095 1.464.744 2.819 1.509 3.963.443.802.15 1.801-.312 2.675-.333.63-.5.945-.366 1.172.134.228.433.235 1.03.25 1.182.028 1.98-.306 2.612-.771.36-.264.539-.396.662-.411.1-.013.28.051.606.183"/><path d="M14.698 21.647c-2.51-.16-4.51-2.117-4.674-4.573-.032-.48-.032-.979 0-1.46.165-2.455 2.164-4.412 4.674-4.573.856-.055 1.75-.055 2.604 0 2.51.161 4.51 2.118 4.674 4.574.032.48.032.978 0 1.459-.06.894-.47 1.723-.953 2.422-.28.49-.095 1.1.197 1.634.21.385.316.578.231.717s-.273.143-.65.152c-.747.018-1.25-.187-1.65-.471-.227-.161-.34-.242-.418-.251s-.232.052-.54.174c-.276.11-.596.177-.89.196a21 21 0 0 1-2.605 0"/></svg>