<svg xmlns="http://www.w3.org/2000/svg" viewBox="0 0 24 24"><path d="M22 14c-.497 4-3.815 7.124-7.83 7.39a33 33 0 0 1-4.34 0 4.9 4.9 0 0 1-1.486-.339c-.512-.21-.768-.316-.899-.3-.13.016-.319.155-.696.434-.666.49-1.505.844-2.75.813-.629-.015-.943-.023-1.084-.263s.034-.572.385-1.237c.487-.922.795-1.978.328-2.823-.805-1.208-1.488-2.639-1.588-4.184-.053-.83-.053-1.69 0-2.52.274-4.243 3.606-7.622 7.79-7.9A33 33 0 0 1 13 3.015"/><path d="M22.003 11v.75a.75.75 0 0 0 .75-.75zM15 11h-.75c0 .414.336.75.75.75zm7.003-.75H15v1.5h7.003zM15.75 11a2.75 2.75 0 0 1 2.752-2.75v-1.5A4.25 4.25 0 0 0 14.25 11zm2.752-2.75A2.75 2.75 0 0 1 21.253 11h1.5a4.25 4.25 0 0 0-4.251-4.25zm1-4.5a1 1 0 0 1-1.001 1v1.5a2.5 2.5 0 0 0 2.5-2.5zm-1.001 1a1 1 0 0 1-1.001-1H16a2.5 2.5 0 0 0 2.5 2.5zm-1.001-1a1 1 0 0 1 1-1v-1.5a2.5 2.5 0 0 0-2.5 2.5zm1-1a1 1 0 0 1 1.002 1h1.5a2.5 2.5 0 0 0-2.501-2.5zM11.996 12.5h.008M8 12.5h.009"/></svg>