<svg xmlns="http://www.w3.org/2000/svg" viewBox="0 0 24 24"><path d="M8.5 15.5h7m-7-5H12M10.5 3q-.337.016-.67.037c-4.184.279-7.516 3.664-7.79 7.914a20 20 0 0 0 0 2.525c.1 1.548.783 2.98 1.588 4.19.467.848.159 1.906-.328 2.83-.35.665-.526.998-.385 1.239.14.24.455.248 1.084.263 1.245.03 2.084-.323 2.75-.815.377-.279.566-.418.696-.434s.387.09.899.3c.46.19.995.308 1.485.34 1.425.095 2.914.096 4.342 0 4.183-.278 7.515-3.663 7.789-7.913a20 20 0 0 0 0-2.525q-.032-.484-.114-.951"/><path d="M17.5 8C19.985 8 22 5 22 5s-2.015-3-4.5-3S13 5 13 5s2.015 3 4.5 3M17.5 5h.009"/></svg>