<svg xmlns="http://www.w3.org/2000/svg" viewBox="0 0 24 24"><path d="M10.996 3q-.59.018-1.17.056c-4.181.278-7.512 3.66-7.786 7.906-.053.83-.053 1.691 0 2.522.1 1.547.783 2.978 1.587 4.187.467.847.159 1.903-.327 2.826-.351.665-.526.998-.386 1.238s.456.248 1.084.263c1.244.03 2.083-.323 2.748-.814.378-.279.567-.418.697-.434s.386.09.898.3c.46.19.994.307 1.485.34 1.423.095 2.912.095 4.339 0 4.18-.278 7.511-3.66 7.785-7.906.075-1.152.087-2.342-.116-3.484M8.5 15h7m-7-5H12M19.5 2 22 4.5 19.5 7m-5-2.5h6.891"/></svg>