<svg xmlns="http://www.w3.org/2000/svg" viewBox="0 0 24 24"><path d="M11 3c-.393.012-.784.045-1.17.071-4.184.278-7.516 3.657-7.79 7.9-.053.83-.053 1.69 0 2.52.1 1.545.783 2.976 1.588 4.184.467.845.159 1.9-.328 2.823-.35.665-.526.997-.385 1.237.14.24.455.248 1.084.263 1.245.03 2.084-.322 2.75-.813.377-.279.566-.418.696-.434s.387.09.899.3c.46.19.995.307 1.485.34 1.425.094 2.914.095 4.342 0 4.183-.278 7.515-3.658 7.789-7.9q.033-.511.039-1.032"/><path d="M22 5.62V3.65a.634.634 0 0 0-.523-.62 9.1 9.1 0 0 1-2.66-.95.66.66 0 0 0-.634 0 9.1 9.1 0 0 1-2.66.95.634.634 0 0 0-.523.62v1.97c0 2.572 2.542 3.974 3.294 4.332.132.064.28.064.412 0C19.458 9.594 22 8.192 22 5.62M8.5 15h7m-7-5H11"/></svg>