<svg xmlns="http://www.w3.org/2000/svg" viewBox="0 0 24 24"><path d="M12.5 3.004c-.895-.014-1.795.009-2.67.067-4.184.278-7.516 3.657-7.79 7.9-.053.83-.053 1.69 0 2.52.1 1.545.783 2.976 1.588 4.184.467.845.159 1.9-.328 2.823-.35.665-.526.997-.385 1.237.14.24.455.248 1.084.263 1.245.03 2.084-.322 2.75-.813.377-.279.566-.418.696-.434s.387.09.899.3c.46.19.995.307 1.485.34 1.425.094 2.914.094 4.342 0 4.183-.278 7.515-3.658 7.789-7.9.042-.655.051-1.328.027-1.991M22 8l-6-6m6 0-6 6M8.5 15h7m-7-5H12"/></svg>