<svg xmlns="http://www.w3.org/2000/svg" viewBox="0 0 24 24"><path d="m2 2 20 20M18.907 19a8.26 8.26 0 0 1-4.736 1.89 33 33 0 0 1-4.342 0 4.9 4.9 0 0 1-1.485-.339c-.512-.21-.768-.316-.899-.3-.13.016-.319.155-.696.434-.666.49-1.505.844-2.75.813-.629-.015-.943-.023-1.084-.263s.034-.572.385-1.237c.487-.922.795-1.978.328-2.823-.805-1.208-1.488-2.639-1.588-4.184-.053-.83-.053-1.69 0-2.52A8.5 8.5 0 0 1 4.503 5M7.5 3.07a8.3 8.3 0 0 1 2.33-.499 33 33 0 0 1 4.34 0c4.184.278 7.516 3.657 7.79 7.9.053.83.053 1.69 0 2.52a8.5 8.5 0 0 1-1.013 3.525"/></svg>