<svg xmlns="http://www.w3.org/2000/svg" viewBox="0 0 24 24"><path d="M21.96 10.97c.053.83.053 1.69 0 2.52-.274 4.243-3.606 7.623-7.79 7.9a33 33 0 0 1-4.34 0 4.9 4.9 0 0 1-1.486-.339c-.512-.21-.768-.316-.899-.3-.13.016-.319.155-.696.434-.666.49-1.505.844-2.75.813-.629-.015-.943-.023-1.084-.263s.034-.572.385-1.237c.487-.922.795-1.978.328-2.823-.805-1.208-1.488-2.639-1.588-4.184-.053-.83-.053-1.69 0-2.52.274-4.243 3.606-7.622 7.79-7.9.514-.034.854-.061 1.17-.071M8.5 15h7m-7-5H12"/><path d="M20.743 2.29C19.147 1.457 18 2.684 18 2.684s-1.146-1.227-2.743-.394C13.323 3.298 13.184 7.247 18 9c4.816-1.753 4.677-5.702 2.743-6.71"/></svg>