<svg xmlns="http://www.w3.org/2000/svg" viewBox="0 0 24 24"><path d="M12 3.004c-.562.008-1.621.03-2.17.067-4.184.278-7.516 3.658-7.79 7.9a20 20 0 0 0 0 2.52c.1 1.545.783 2.976 1.588 4.184.467.845.159 1.901-.328 2.823-.35.665-.526.997-.385 1.237.14.24.455.248 1.084.263 1.245.03 2.084-.322 2.75-.813.377-.279.566-.418.696-.434s.387.09.899.3c.46.19.995.307 1.485.34 1.425.094 2.914.095 4.342 0 4.183-.278 7.515-3.658 7.789-7.9.031-.49.044-.992.039-1.49"/><path d="M20.265 7.27 22 9m-.829-3.914a3.086 3.086 0 1 0-6.171 0 3.086 3.086 0 0 0 6.171 0M11.996 12.5h.008m3.987 0H16m-8 0h.009"/></svg>