<svg xmlns="http://www.w3.org/2000/svg" viewBox="0 0 24 24"><path d="M12.345 17.487c3.556-.234 6.388-3.08 6.62-6.653.046-.699.046-1.423 0-2.122-.232-3.572-3.064-6.418-6.62-6.652-1.213-.08-2.48-.08-3.69 0-3.556.234-6.388 3.08-6.62 6.652-.046.7-.046 1.423 0 2.122.084 1.302.665 2.506 1.349 3.524.397.712.135 1.6-.279 2.377-.298.56-.447.84-.327 1.042s.387.209.922.221c1.057.026 1.77-.271 2.336-.685.321-.234.482-.351.593-.365.11-.013.328.075.763.253.392.16.846.258 1.263.286 1.21.08 2.477.08 3.69 0"/><path d="M8 20.18a7.06 7.06 0 0 0 3.655 1.307c1.213.08 2.48.08 3.69 0a4.2 4.2 0 0 0 1.263-.286c.435-.178.653-.266.763-.253.111.014.272.131.593.365.566.414 1.279.711 2.337.686.534-.013.802-.02.921-.222.12-.202-.029-.482-.327-1.042-.414-.776-.676-1.665-.279-2.377.684-1.018 1.265-2.222 1.35-3.524.045-.699.045-1.423 0-2.122a7 7 0 0 0-.184-1.212M7 12h7M7 8h4"/></svg>