<svg xmlns="http://www.w3.org/2000/svg" viewBox="0 0 24 24"><path d="M21.917 10.5q.027.234.043.471c.053.83.053 1.69 0 2.52-.274 4.243-3.606 7.622-7.79 7.9a33 33 0 0 1-4.34 0 4.9 4.9 0 0 1-1.486-.34c-.512-.21-.768-.316-.899-.3-.13.016-.319.156-.696.434-.666.491-1.505.844-2.75.814-.629-.016-.943-.023-1.084-.263s.034-.573.385-1.238c.487-.922.795-1.977.328-2.823-.805-1.208-1.488-2.639-1.588-4.184-.053-.83-.053-1.69 0-2.52.274-4.242 3.606-7.621 7.79-7.9a33 33 0 0 1 3.67-.037"/><path d="M14 7.5V10h2.5L22 4.5 19.5 2zM11.996 12.5h.008M8 12.5h.009"/></svg>