<svg xmlns="http://www.w3.org/2000/svg" viewBox="0 0 24 24"><path d="m17.973 22 .35-1.344 1.309-.988a3.7 3.7 0 0 0 1.348-2.027l.958-3.67c.258-.989-.313-2.006-1.277-2.27l-.872-.24M9.251 19.6l.35-1.344-2.464-7.075a1.64 1.64 0 0 1 .503-1.957 1.543 1.543 0 0 1 2.224.387l1.373 2.375 2.337-8.956c.194-.742.937-1.182 1.66-.983s1.15.961.957 1.703L15.023 8.23m0 0-.468 1.791m.468-1.79.872.24c.963.264 1.535 1.281 1.277 2.27l-.234.896m2.384 1.616.233-.896c.258-.99-.313-2.006-1.277-2.271l-.872-.24M2 10l2.583-2.588M2 7h3v3m5-8L7.157 4.842M7 2l.001 3H10"/></svg>