<svg xmlns="http://www.w3.org/2000/svg" viewBox="0 0 24 24"><path d="m16.678 11.843.181-1.007c.081-.63-.205-1.32-1.006-1.586-1.08-.289-1.616.595-1.745 1.176m2.57 1.417c-.045.16-.062.278-.105.459m.104-.46c.184-.664.74-1.433 1.778-1.14 1.177.5 1.023 1.345.817 2.419m-5.163-2.695.779-4.8C15.014 4.765 14.395 4 13.54 4c-.854 0-1.297.653-1.43 1.552L10 15l-1.202-1.625c-.746-.795-1.816-.777-2.464.054-.495.636-.393 1.434.003 2.132l3.126 5.45c.36.612 1.016.989 1.725.989h6.796a3 3 0 0 0 2.954-2.478l1.04-5.884c.146-.736-.464-1.574-1.382-1.574-.472 0-1.078.355-1.324 1.057m-5.163-2.695-.027.16m.026-.16q-.017.085-.026.16m0 0-.22 1.166m5.41 1.369q-.057.294-.11.61M2 10l2.988-3.005m0 0H2m2.988 0V10M10 2 7.001 5m0 0V2.002m0 2.998h2.984"/></svg>