<svg xmlns="http://www.w3.org/2000/svg" viewBox="0 0 24 24"><path d="M20 3H4a2 2 0 0 0-2 2v12a2 2 0 0 0 2 2h16a2 2 0 0 0 2-2V5a2 2 0 0 0-2-2"/><path d="m17 7 .414.414c.29.29.434.434.51.618.076.183.076.388.076.796v4.344c0 .408 0 .613-.076.797-.076.183-.22.328-.51.617L17 15M18 21v-2M6 21v-2M9.5 13.5V15m0-1.5a2.5 2.5 0 0 1-2.171-1.26M9.5 13.5a2.5 2.5 0 0 0 2.171-1.26M9.5 7v1.5m0 0a2.5 2.5 0 0 0-2.171 1.26M9.5 8.5a2.5 2.5 0 0 1 2.171 1.26M6 13l1.329-.76M12.999 9l-1.328.76M13 13l-1.329-.76M6.001 9l1.328.76m0 2.48A2.5 2.5 0 0 1 7 11c0-.451.12-.875.329-1.24m4.342 0c.21.365.329.789.329 1.24s-.12.875-.329 1.24"/></svg>