<svg xmlns="http://www.w3.org/2000/svg" viewBox="0 0 24 24"><path d="M5 12h1M18 12h1M14 13.706A2.62 2.62 0 1 1 10.294 10M2 2l20 20M21.25 18a.75.75 0 0 0 1.5 0zM20 20.75a.75.75 0 0 0 0-1.5zm-16-16a.75.75 0 0 0 0-1.5zm4-1.5a.75.75 0 0 0 0 1.5zM2.75 18V6h-1.5v12zm20 0V6h-1.5v12zM4 20.75h16v-1.5H4zM1.25 18A2.75 2.75 0 0 0 4 20.75v-1.5c-.69 0-1.25-.56-1.25-1.25zm1.5-12c0-.69.56-1.25 1.25-1.25v-1.5A2.75 2.75 0 0 0 1.25 6zM20 4.75c.69 0 1.25.56 1.25 1.25h1.5A2.75 2.75 0 0 0 20 3.25zm0-1.5H8v1.5h12z"/></svg>