<svg xmlns="http://www.w3.org/2000/svg" viewBox="0 0 24 24"><path d="M17.478 11.01h.022c2.485 0 4.5 2.017 4.5 4.506 0 1.728-1.074 2.777-2.5 3.484m-2.022-7.99A5.504 5.504 0 0 0 12 5a5.504 5.504 0 0 0-5.48 5.03m10.958.98a5.5 5.5 0 0 1-.86 2.49M6.52 10.03A5.005 5.005 0 0 0 2 15.015C2 16.87 3.006 18.141 4.5 19m2.02-8.97q.237-.022.48-.022c.91 0 1.765.243 2.5.67"/><path d="M10 5.138a4.1 4.1 0 0 0-.466-1.253A4.03 4.03 0 0 0 7.136 2a3.18 3.18 0 0 1-1.547 3.138 3.12 3.12 0 0 1-3.465-.216c-.249.993-.13 2.082.418 3.04A4.03 4.03 0 0 0 6 10M7.407 19.536 8.5 18.5l1.093 1.036c.547.56.547 1.456-.029 2.016-.288.28-.66.448-1.064.448-.403 0-.776-.168-1.064-.448a1.417 1.417 0 0 1-.029-2.016M14.407 19.536 15.5 18.5l1.093 1.036c.547.56.547 1.456-.029 2.016-.288.28-.66.448-1.064.448-.403 0-.776-.168-1.064-.448a1.417 1.417 0 0 1-.029-2.016M10.907 14.036 12 13l1.093 1.036c.547.56.547 1.456-.029 2.016-.288.28-.66.448-1.064.448-.403 0-.776-.168-1.064-.448a1.417 1.417 0 0 1-.029-2.016"/></svg>