<svg xmlns="http://www.w3.org/2000/svg" viewBox="0 0 24 24"><path d="M14.154 21.915q.218.084.461.085C15.38 22 16 21.328 16 20.5s-.62-1.5-1.385-1.5c-.271 0-.524.085-.738.23-1.061.793-3.027 1.808-5.262 2.071m-2.769-.107A7.6 7.6 0 0 1 4 20.548M19 21h2M9.5 4a3.86 3.86 0 0 0-2.342-2c.152 1.275-.42 2.58-1.55 3.264a3.03 3.03 0 0 1-3.47-.225c-.25 1.033-.178 1.965.37 2.961.364.66 1.501 1.5 1.501 1.5"/><path d="M17.228 17.775c1.459 0 3.044-.71 3.906-2.53s0-3.568-.743-4.398c-.605-.674-2.04-1.424-3.163-1.35m0 0c-.02.6-.516 1.996-1.187 2.762m1.187-2.761c.136-1.778-.93-4.85-4.43-5.434-3.634-.606-5.823 2.39-6.034 4.503m0 0c.71-.053 2.233.127 3.334.93m-3.334-.93c-1.374.161-4.15 1.315-4.254 4.642s3.765 4.667 5.795 4.782c1.346.114 4.064-.254 5.286-1.983.317-.425.621-1.746-.551-2.528-1.15-.767-2.297.086-2.58.446-.133.17-.365.653-.365 1.081"/></svg>