<svg xmlns="http://www.w3.org/2000/svg" viewBox="0 0 24 24"><path d="M21 12H3c0 3.345 1.848 6.218 4.56 7.764.24.137.34.436.217.683l-.415.83a.5.5 0 0 0 .447.723h8.382a.5.5 0 0 0 .447-.724l-.415-.83a.52.52 0 0 1 .218-.682C19.15 18.218 21 15.345 21 12M17.459 12l1.55-3.719c.175-.419.606-.629 1.038-.701.374-.062.672-.239.831-.527.397-.718-.21-1.859-1.355-2.55s-2.397-.668-2.793.05c-.16.289-.157.646-.022 1.015.156.427.197.92-.063 1.288L13 12M6.502 5.502 10 9M8.6 3.403c1.546 1.546 1.16 3.039 0 4.198-1.158 1.159-2.651 1.545-4.197 0-1.546-1.546-1.4-5.597-1.4-5.597s4.052-.147 5.598 1.399"/></svg>