<svg xmlns="http://www.w3.org/2000/svg" viewBox="0 0 24 24"><path d="m10 10.993 2.016 2.009L14 10.993m0-3L12.016 6 10 7.993m2.016-1.472v5.882"/><path d="M4.927 5.908C5.2 3.845 6.863 2.294 8.938 2.133A41 41 0 0 1 12 2c1.015 0 2.087.057 3.062.133 2.075.161 3.738 1.712 4.011 3.775.224 1.685.427 3.837.427 6.092 0 2.344-.22 4.578-.453 6.29-.268 1.962-1.805 3.452-3.78 3.595-.923.067-2.023.115-3.267.115s-2.344-.048-3.268-.115c-1.974-.143-3.511-1.633-3.779-3.595C4.72 16.578 4.5 14.344 4.5 12c0-2.255.203-4.407.427-6.092"/></svg>