<svg xmlns="http://www.w3.org/2000/svg" viewBox="0 0 24 24"><path d="m22 3.5-1.005 1.677a1 1 0 0 1-1.337.363l-3.78-2.061a1 1 0 0 0-1.356.399l-.752 1.38M11.5 9.5l1-1.5M6.796 5.545c1.19-1.528 3.276-1.968 5.026-1.117.725.352 1.5.75 2.216 1.16s1.452.873 2.123 1.318c1.62 1.074 2.278 3.082 1.535 4.865a33.5 33.5 0 0 1-1.948 3.957 34 34 0 0 1-2.596 3.783 3.855 3.855 0 0 1-4.773 1.08 44 44 0 0 1-2.362-1.258c-.875-.5-1.638-.973-2.283-1.395a3.765 3.765 0 0 1-1.441-4.63 34 34 0 0 1 2.013-4.116 34 34 0 0 1 2.49-3.647"/></svg>