<svg xmlns="http://www.w3.org/2000/svg" viewBox="0 0 24 24"><path d="M13.5 2v4m0 4v2M5 2C3.945 3.132 3.235 4.501 3 6M14 6h-1a1 1 0 0 0-1 1v2a1 1 0 0 0 1 1h1a1 1 0 0 0 1-1V7a1 1 0 0 0-1-1"/><path d="M6.427 5.908c.273-2.063 1.936-3.614 4.011-3.775A41 41 0 0 1 13.5 2c1.015 0 2.087.057 3.062.133 2.075.161 3.738 1.712 4.011 3.775C20.797 7.593 21 9.745 21 12c0 2.344-.22 4.578-.453 6.29-.268 1.962-1.805 3.452-3.78 3.595-.923.067-2.023.115-3.267.115s-2.344-.048-3.267-.115c-1.975-.143-3.512-1.633-3.78-3.595C6.22 16.578 6 14.344 6 12c0-2.255.203-4.407.427-6.092"/></svg>