<svg xmlns="http://www.w3.org/2000/svg" viewBox="0 0 24 24"><path d="M12 2v6m0 4v2M12.5 8h-1a1 1 0 0 0-1 1v2a1 1 0 0 0 1 1h1a1 1 0 0 0 1-1V9a1 1 0 0 0-1-1"/><path d="M5.332 8.798C5.605 6.75 7.284 5.238 9.346 5.1A41 41 0 0 1 12 5c.877 0 1.8.042 2.654.099 2.062.138 3.74 1.651 4.014 3.7A36 36 0 0 1 19 13.5c0 1.788-.165 3.5-.357 4.884-.27 1.955-1.831 3.412-3.801 3.531-.818.05-1.773.085-2.842.085s-2.024-.035-2.842-.085c-1.97-.12-3.531-1.576-3.802-3.53A36 36 0 0 1 5 13.5c0-1.71.151-3.35.332-4.702"/></svg>