<svg xmlns="http://www.w3.org/2000/svg" viewBox="0 0 24 24"><path d="M6.808 9.575c.254-1.927 1.813-3.352 3.727-3.482C11.328 6.04 12.185 6 13 6s1.672.04 2.465.093c1.914.13 3.473 1.555 3.727 3.482.168 1.271.308 2.816.308 4.425 0 1.682-.153 3.294-.331 4.597-.25 1.84-1.7 3.21-3.53 3.323-.76.047-1.646.08-2.639.08s-1.88-.033-2.639-.08c-1.83-.113-3.28-1.483-3.53-3.323A34.5 34.5 0 0 1 6.5 14c0-1.61.14-3.154.308-4.425"/><path d="M13 9V4.5a1 1 0 0 0-1-1H6a1 1 0 0 1-1-1V2M13.5 9h-1a1 1 0 0 0-1 1v2a1 1 0 0 0 1 1h1a1 1 0 0 0 1-1v-2a1 1 0 0 0-1-1"/></svg>