<svg xmlns="http://www.w3.org/2000/svg" viewBox="0 0 24 24"><path d="M22.622 5.408a.75.75 0 0 0-1.244-.84zm-7.998-1.27-.378.647zm-1.365.342.64.39zm7.665 2.101.62.422.002-.002zm-1.558.32-.378.647zm-7.742 2.015a.75.75 0 1 0-1.248-.832zm-2.248.668a.75.75 0 1 0 1.248.832zm12.002-5.016-1.075 1.594 1.243.84 1.076-1.594zm-1.634 1.684L15.002 3.49l-.756 1.296 4.742 2.763zm-7.126-2.161-.99 1.629 1.282.779.99-1.63zm2.384-.602a1.757 1.757 0 0 0-2.385.602l1.283.778a.257.257 0 0 1 .346-.084zm5.302 2.67a.34.34 0 0 1-.238.155.5.5 0 0 1-.322-.062l-.756 1.296c.763.445 1.92.39 2.556-.545zm-9.928 1.925-1 1.5 1.248.832 1-1.5z"/><path d="M5.185 18.994C.89 16.557 1.537 13.02 3.631 9.454c2.095-3.566 4.889-5.885 9.184-3.448s3.648 5.975 1.554 9.54c-2.095 3.566-4.889 5.885-9.184 3.448"/></svg>