<svg xmlns="http://www.w3.org/2000/svg" viewBox="0 0 24 24"><path d="M22.643 3.886a.75.75 0 1 0-1.286-.772zm-6.765-.407-.36.658zm-1.357.399-.658-.36zm5.136 1.662.36-.658zm1.7-2.426L20.35 4.791l1.286.772 1.006-1.677zm-1.34 1.768-3.78-2.062-.718 1.317 3.78 2.062zm-6.154-1.363L11.342 8.14l1.316.718 2.522-4.622zm2.374-.699a1.75 1.75 0 0 0-2.374.699l1.317.718a.25.25 0 0 1 .339-.1zm4.114 1.971a.25.25 0 0 1-.334.091l-.719 1.317a1.75 1.75 0 0 0 2.339-.636z"/><path d="M6.796 5.545c1.19-1.528 3.276-1.968 5.026-1.117.725.352 1.5.75 2.216 1.16s1.452.873 2.123 1.318c1.62 1.074 2.278 3.082 1.535 4.865a33.5 33.5 0 0 1-1.948 3.957 34 34 0 0 1-2.596 3.783 3.855 3.855 0 0 1-4.773 1.08 44 44 0 0 1-2.362-1.258c-.875-.5-1.638-.973-2.283-1.395a3.765 3.765 0 0 1-1.441-4.63 34 34 0 0 1 2.013-4.116 34 34 0 0 1 2.49-3.647"/><path d="m12.16 8.996-.784-.47a1 1 0 0 0-1.383.36L8.986 10.65a1 1 0 0 0 .353 1.354l.785.47a1 1 0 0 0 1.383-.36l1.007-1.764a1 1 0 0 0-.353-1.354"/></svg>