<svg xmlns="http://www.w3.org/2000/svg" viewBox="0 0 24 24"><path d="M10.5 2v4m0 4v2M3.427 5.908C3.7 3.845 5.363 2.294 7.438 2.133A41 41 0 0 1 10.5 2c1.015 0 2.087.057 3.062.133 2.075.161 3.738 1.712 4.011 3.775C17.797 7.593 18 9.745 18 12c0 2.344-.22 4.578-.453 6.29-.268 1.962-1.805 3.452-3.78 3.595-.923.067-2.023.115-3.267.115s-2.344-.048-3.268-.115c-1.974-.143-3.511-1.633-3.779-3.595C3.22 16.578 3 14.344 3 12c0-2.255.203-4.407.427-6.092M19 2c1.055 1.132 1.765 2.501 2 4"/><path d="M11 6h-1a1 1 0 0 0-1 1v2a1 1 0 0 0 1 1h1a1 1 0 0 0 1-1V7a1 1 0 0 0-1-1"/></svg>