<svg xmlns="http://www.w3.org/2000/svg" viewBox="0 0 24 24"><path d="M9.265 6c-3.025 1.036-6.88 3.723-7.21 6.952-.376 3.664 1.338 5.341.647 7.346 2.005-.691 3.682 1.023 7.346.648 3.23-.332 5.916-4.186 6.952-7.211"/><path d="M22 4.506c-.612-.5-2.5-1.006-4.74.63m-8.222.083c.376 1.489 1.62 3.683 3.34 5.403s3.914 2.964 5.403 3.34c.519.132 1.037-.093 1.415-.471.067-.068.13-.138.181-.219.684-1.078 1.518-4.512-1.81-7.84-3.327-3.326-6.76-2.494-7.84-1.81a1.3 1.3 0 0 0-.218.182c-.378.379-.602.896-.471 1.415"/></svg>