<svg xmlns="http://www.w3.org/2000/svg" viewBox="0 0 24 24"><path d="M6.5 22v-2.5l-1.146-2.174A9 9 0 0 1 4.5 13.5V8.19c0-.788.63-1.428 1.406-1.428.777 0 1.407.64 1.407 1.428M14.5 22v-2l2.5-1.5c1.516-.927 1.994-1.775 2.407-3.04.271-.83-.48-1.554-1.378-1.554s-1.802 1.018-2.587 1.602c-1.268.809-2.961-.164-2.961-1.602s1.693-2.411 2.961-1.603c.316.166.577.386.785.615.473.52 1.096.988 1.81.988.913 0 1.679-.737 1.408-1.585a5.28 5.28 0 0 0-5.042-3.652c-.707 0-1.466.282-1.466.282l2.145-5.004C15.457 3.018 14.785 2 13.796 2c-.526 0-1.007.302-1.243.78l-2.428 4.934m0 0L9.5 9m.625-1.286V4.381c0-.789-.63-1.429-1.406-1.429-.777 0-1.406.64-1.406 1.429v3.81m0 0v3.333"/></svg>