<svg xmlns="http://www.w3.org/2000/svg" viewBox="0 0 24 24"><path d="M10 6h.5m3 0h.5M20.5 14.5v3a2 2 0 0 1-2 2H18m-14.5-5v3a2 2 0 0 0 2 2H6M10.5 17.5V16a1.5 1.5 0 0 1 3 0v1.5m1.5.5v3.5a.5.5 0 0 1-.5.5h-5a.5.5 0 0 1-.5-.5V18a.5.5 0 0 1 .5-.5h5a.5.5 0 0 1 .5.5M9.003 11v.75a.75.75 0 0 0 .75-.75zM2 11h-.75c0 .414.336.75.75.75zm7.003-.75H2v1.5h7.003zM2.75 11a2.75 2.75 0 0 1 2.752-2.75v-1.5A4.25 4.25 0 0 0 1.25 11zm2.752-2.75A2.75 2.75 0 0 1 8.253 11h1.5a4.25 4.25 0 0 0-4.251-4.25zm1-4.5a1 1 0 0 1-1.001 1v1.5A2.5 2.5 0 0 0 8 3.75zm-1.001 1a1 1 0 0 1-1.001-1H3a2.5 2.5 0 0 0 2.5 2.5zm-1.001-1a1 1 0 0 1 1-1v-1.5A2.5 2.5 0 0 0 3 3.75zm1-1a1 1 0 0 1 1.002 1h1.5A2.5 2.5 0 0 0 5.5 1.25zM22.003 11v.75a.75.75 0 0 0 .75-.75zM15 11h-.75c0 .414.336.75.75.75zm7.003-.75H15v1.5h7.003zM15.75 11a2.75 2.75 0 0 1 2.752-2.75v-1.5A4.25 4.25 0 0 0 14.25 11zm2.752-2.75A2.75 2.75 0 0 1 21.253 11h1.5a4.25 4.25 0 0 0-4.251-4.25zm1-4.5a1 1 0 0 1-1.001 1v1.5a2.5 2.5 0 0 0 2.5-2.5zm-1.001 1a1 1 0 0 1-1.001-1H16a2.5 2.5 0 0 0 2.5 2.5zm-1.001-1a1 1 0 0 1 1-1v-1.5a2.5 2.5 0 0 0-2.5 2.5zm1-1a1 1 0 0 1 1.002 1h1.5a2.5 2.5 0 0 0-2.501-2.5z"/></svg>