<svg xmlns="http://www.w3.org/2000/svg" viewBox="0 0 24 24"><path d="m4.5 6-.67-.335A.75.75 0 0 0 3.75 6zm15 0h.75a.75.75 0 0 0-.078-.335zm-.894-1.789-.67.336zM17.316 2.3l-.394.638zm1.599 14.115-.53-.53zm-13.829 0-.53.53zM3.751 6v7h1.5V6zM8.5 17.75h7v-1.5h-7zM20.25 13V6h-1.5v7zM4.5 6.75h15v-1.5h-15zm.67-.415.895-1.788-1.342-.671-.894 1.789zm15-.67-.894-1.79-1.342.672.895 1.788zM8.974 2.75h6.055v-1.5H8.974zm10.304 1.126c-.262-.524-.483-.969-.704-1.315-.23-.361-.49-.67-.863-.9l-.788 1.276c.111.069.226.178.386.43.17.265.352.628.627 1.18zM15.028 2.75c.617 0 1.023 0 1.337.033.296.031.445.085.557.154l.788-1.276c-.371-.23-.765-.326-1.19-.37-.41-.042-.905-.041-1.492-.041zM6.067 4.547c.276-.552.458-.915.627-1.18.16-.252.275-.361.387-.43L6.29 1.66c-.372.23-.633.539-.863.9-.22.346-.442.79-.704 1.315zM8.973 1.25c-.586 0-1.082 0-1.49.041-.427.044-.82.14-1.192.37l.789 1.276c.111-.07.26-.123.556-.154.314-.032.72-.033 1.337-.033zm6.528 16.5c.921 0 1.688.002 2.294-.08.628-.084 1.195-.27 1.65-.726l-1.06-1.06c-.13.13-.328.237-.79.3-.483.064-1.13.066-2.094.066zM18.75 13c0 .964-.002 1.612-.067 2.095-.062.461-.17.659-.3.789l1.061 1.06c.456-.455.641-1.022.726-1.65.081-.606.08-1.372.08-2.294zm-15 0c0 .922-.002 1.688.08 2.294.084.628.27 1.195.725 1.65l1.06-1.06c-.13-.13-.237-.328-.299-.79-.065-.482-.066-1.13-.066-2.094zm4.75 3.25c-.964 0-1.612-.002-2.095-.067-.461-.062-.659-.169-.79-.3l-1.06 1.062c.456.455 1.022.64 1.65.725.606.082 1.373.08 2.295.08zM10.5 9h3M12 20v2m0-2H7m5 0h5M7 20H2v2m5-2v2m10-2h5v2m-5-2v2"/></svg>