<svg xmlns="http://www.w3.org/2000/svg" viewBox="0 0 24 24"><path d="M3.162 6.595c-.086-.368.004-.768.29-1.016C5.437 3.86 8.218 3 11 3c.164 1.477.986 5.273 2.934 6.883s7.62 1.617 8.025 3.769c.244 1.297-.627 2.348-2.17 2.348H4.945c-1.588 0-2.826-.383-2.936-2.146-.086-1.382.44-2.586.82-3.26.847-1.153.558-3.042.333-3.999M12.498 8.5l-1.5 1M11.5 6l-2 .5"/><circle cx="4" cy="19" r="2"/><circle cx="12" cy="19" r="2"/><circle cx="20" cy="19" r="2"/><path d="M6 16c0-2.564-1.207-4.802-3-6M6 19h4m4 0h4"/></svg>