<svg xmlns="http://www.w3.org/2000/svg" viewBox="0 0 24 24"><path d="m9.8 19.7 9.9-9.9c.496-.496.699-1.22.417-1.865-.307-.703-.822-1.64-1.617-2.435-.796-.795-1.732-1.31-2.435-1.617-.644-.282-1.369-.08-1.866.418l-9.898 9.898c-.497.497-.7 1.222-.418 1.866.307.703.822 1.64 1.617 2.435s1.732 1.31 2.435 1.617c.644.282 1.369.079 1.866-.418M19.29 6c.885-.347 1.9-1.011 2.259-1.371a1.54 1.54 0 0 0-2.178-2.178c-.36.36-1.024 1.374-1.371 2.259M6 19.29c-.347.885-1.011 1.9-1.371 2.259a1.54 1.54 0 0 1-2.178-2.178c.36-.36 1.374-1.024 2.259-1.371"/></svg>