<svg xmlns="http://www.w3.org/2000/svg" viewBox="0 0 24 24"><path d="m15 13-.724-1.447c-.169-.339-.397-.553-.776-.553m1.5 2 .724 1.447c.151.303.445.514.776.553M15 13l-.9 1.2c-.275.367-.665.688-1.1.8m2-2 .9-1.2c.275-.367.665-.688 1.1-.8M6 13.5l.519-.519a1 1 0 0 1 1.601.26L9.5 16l2.28-7.298A1 1 0 0 1 12.736 8H17M18 3h.5a2 2 0 0 1 2 2v4.333a2 2 0 0 0 .4 1.2L22 12l-1.1 1.467a2 2 0 0 0-.4 1.2V19a2 2 0 0 1-2 2H18M6 3h-.5a2 2 0 0 0-2 2v4.333a2 2 0 0 1-.4 1.2L2 12l1.1 1.467a2 2 0 0 1 .4 1.2V19a2 2 0 0 0 2 2H6"/></svg>