<svg xmlns="http://www.w3.org/2000/svg" viewBox="0 0 24 24"><path d="M9 5.001V2m0 3.001h2.4m-2.4 0c.984-1.41 2.402-2.41 3.291-2.674 1.238-.42 2.595-.436 3.815.041 1.752.686 3.03 1.853 3.894 3.629M8.257 11.062 4.572 8.481a1.36 1.36 0 0 1-.322-1.894 1.36 1.36 0 0 1 1.889-.345l7.37 5.163.578.394-.03-2.539c0-.91.787-1.618 1.688-1.517.689.076 1.239.612 1.337 1.301l.88 5.563a3.01 3.01 0 0 1-.704 2.453l-3.466 3.967a2.84 2.84 0 0 1-3.457.646L5.4 19.069l-.369-.258a1.36 1.36 0 0 1-.322-1.894 1.357 1.357 0 0 1 1.889-.345l.369.258-1.106-.774a1.36 1.36 0 0 1-.322-1.894 1.36 1.36 0 0 1 1.889-.345m.83-2.755 1.105.775m-1.106-.775a1.36 1.36 0 0 0-1.889.345 1.36 1.36 0 0 0 .323 1.894l.737.516m0 0 .368.258"/></svg>