<svg xmlns="http://www.w3.org/2000/svg" viewBox="0 0 24 24"><path d="M6.424 9.976a1.245 1.245 0 0 1-.472-1.722 1.306 1.306 0 0 1 1.762-.461l5.957 3.36-.634-2.425c-.155-.812.408-1.587 1.244-1.711a1.5 1.5 0 0 1 1.622.923l2.98 6.154 1.117.63M6.424 9.976l4.468 2.52m-4.468-2.52-1.49-.84a1.306 1.306 0 0 0-1.761.46 1.245 1.245 0 0 0 .472 1.722l1.49.84M15.7 22l-1.117-.63-1.528.227a3.5 3.5 0 0 1-2.238-.412l-6.774-3.821a1.244 1.244 0 0 1-.472-1.721 1.306 1.306 0 0 1 1.762-.462m-.2-3.022 4.468 2.52m-4.468-2.52a1.306 1.306 0 0 0-1.761.46 1.245 1.245 0 0 0 .472 1.722l1.489.84m0 0 3.723 2.1M21 6c-.903-1.777-2.24-2.945-4.071-3.631-1.275-.478-2.694-.463-3.988-.042-.963.273-2.201 1.07-3.005 2.05M9.5 2v3.004h2.508"/></svg>