<svg xmlns="http://www.w3.org/2000/svg" viewBox="0 0 24 24"><path d="m15.122 22-1.138-.663-1.557.24a3.48 3.48 0 0 1-2.278-.434l-3.107-1.809a1.775 1.775 0 0 1-.641-2.414l.437-.765M19.5 14.35l-1.137-.663-3.035-6.471a1.52 1.52 0 0 0-1.652-.97 1.533 1.533 0 0 0-1.267 1.799l.645 2.55L5.47 6.178a1.307 1.307 0 0 0-1.794.485 1.33 1.33 0 0 0 .481 1.81l3.792 2.208m0 0 1.516.884m-1.516-.883-.438.765a1.775 1.775 0 0 0 .64 2.413l.76.442m-.556 2.737-.758-.442a1.775 1.775 0 0 1-.641-2.413l.438-.765M20.5 6c-.903-1.778-2.24-2.945-4.071-3.632-1.275-.477-2.694-.462-3.988-.04-.942.266-2.146 1.033-2.95 1.984M9 2v3.003h2.508"/></svg>