<svg xmlns="http://www.w3.org/2000/svg" viewBox="0 0 24 24"><path d="M13.526 8.446 14.5 11.5 5.653 6.245c-.826-.484-1.9-.229-2.4.569s-.236 1.836.59 2.32l4.895 2.864-1.662 4.122c-.928 2.35-.25 3.485 1.444 4.15l4.12 1.388c1.371.548 3.142.579 4.115-.975l2.812-4.487c.519-.828.575-1.853.15-2.73l-2.842-5.858c-.276-.744-1.051-1.202-1.862-1.1-.974.123-1.648 1.002-1.487 1.938M21 5.996c-.903-1.777-2.24-2.945-4.071-3.63-1.275-.478-2.694-.463-3.988-.042-.974.276-2.23 1.088-3.033 2.083M9.5 2v3h2.508"/></svg>