<svg xmlns="http://www.w3.org/2000/svg" viewBox="0 0 24 24"><path d="m16 22-2-1.004c-2.184.08-5.244-.05-6.627-1.707-.537-.705-.72-1.823-.58-3.116.185-1.72.456-2.72 1.617-4.526L3.81 9.005a1.61 1.61 0 0 1-.596-2.199A1.61 1.61 0 0 1 5.41 6.21l7.86 4.518c-.161-1.103-.38-1.422-.552-2.587a1.7 1.7 0 0 1 .134-.937 1.56 1.56 0 0 1 1.89-.866c.483.149.898.526 1.067 1.002L18 13.496 20 14.501M9.5 5.004V2m0 3.004h2.508m-2.508 0c1.201-1.584 2.498-2.41 3.44-2.676 1.295-.422 2.714-.437 3.989.04 1.831.687 3.168 1.855 4.07 3.633"/></svg>