<svg xmlns="http://www.w3.org/2000/svg" viewBox="0 0 24 24"><path d="M12.391 5H10m0 0V2m0 3c2.87-4 8.873-3.432 11 1M4.991 11.228l-1.132-.643a1.32 1.32 0 0 1-.496-1.82 1.367 1.367 0 0 1 1.85-.488l.782.444m-1.004 2.507 5.4 3.068m-5.4-3.068a1.367 1.367 0 0 0-1.81.51 1.32 1.32 0 0 0 .497 1.822l1.954 1.11m-.64-3.442.04.023m.6 3.419 3.91 2.221m-3.91-2.221a1.367 1.367 0 0 0-1.85.488 1.32 1.32 0 0 0 .496 1.82l8.21 4.664c1.296.736 2.953.3 3.7-.975l3.57-6.083a1.75 1.75 0 0 0 .04-1.706L16.6 6.814A1.52 1.52 0 0 0 15.22 6c-.901.015-1.591.794-1.483 1.674l.65 2.737L7.35 6.413A1.367 1.367 0 0 0 5.5 6.9a1.32 1.32 0 0 0 .495 1.82m0 0 5.021 2.852"/></svg>