<svg xmlns="http://www.w3.org/2000/svg" viewBox="0 0 24 24"><path d="M2.002 15h20M13.5 9.5l2-2M15.5 11.5l2-2M10.001 9v.75a.75.75 0 0 0 .75-.75zm-6-2 .624-.416a.75.75 0 0 0-1.294.08zm7.401-1.607a.75.75 0 1 0-.88 1.214zm9.772 8.008.44-.607zm-19.17 2.603-.748-.048zM11.002 6l-.53-.53h-.001l-.002.002-.002.003-.007.006-.065.072a3 3 0 0 0-.15.184 4.5 4.5 0 0 0-.414.678C9.534 7.006 9.251 7.87 9.251 9h1.5c0-.87.217-1.506.42-1.915a3 3 0 0 1 .351-.544q.012-.015.015-.016 0-.002 0 0l-.002.002-.003.002zM7.658 9.75H10v-1.5H7.658zM3.377 7.416c.542.813 1.125 1.417 1.851 1.807.728.39 1.527.527 2.43.527v-1.5c-.754 0-1.283-.114-1.72-.348-.438-.235-.855-.63-1.313-1.318zm7.145-.809 10.212 7.401.88-1.214-10.212-7.401zm9.472 10.643H3.936v1.5h16.058zm-17.24-1.199c.15-2.361.66-6.205 1.917-8.715l-1.34-.672c-1.404 2.799-1.923 6.905-2.075 9.292zm1.182 1.199c-.705 0-1.223-.557-1.183-1.199l-1.497-.095c-.099 1.563 1.168 2.794 2.68 2.794zM21.25 16c0 .688-.56 1.25-1.258 1.25v1.5A2.754 2.754 0 0 0 22.752 16zm-.517-1.992c.516.374.517.9.517 1.992h1.5c0-.846.117-2.298-1.137-3.206z"/></svg>