<svg xmlns="http://www.w3.org/2000/svg" viewBox="0 0 24 24"><path d="m18.963 7.013.739-.128a.75.75 0 0 0-.57-.602zm-3.605.163a.75.75 0 0 0 .257-1.477zm-2.745-.807.53.53zm-7.907 7.924-.531-.53zm0 1.413-.53.53zm15.205-3.223.74-.128zm-2.064-4.96.946.22.34-1.46-.947-.22zm.377-.382.948 5.47 1.478-.256-.948-5.47zm.879 5.69-7.926 7.931 1.06 1.06 7.927-7.93zM5.236 14.823l7.908-7.924-1.062-1.06-7.907 7.924zm8.127-7.994 1.995.347.257-1.477-1.994-.348zm-2.54 13.933-5.586-5.586-1.061 1.06 5.586 5.587zM13.143 6.9a.25.25 0 0 1 .22-.07l.258-1.478a1.75 1.75 0 0 0-1.54.488zm-8.968 6.864a1.75 1.75 0 0 0 .001 2.474l1.06-1.061a.25.25 0 0 1 0-.353zm7.002 7a.25.25 0 0 1-.354 0l-1.06 1.06a1.75 1.75 0 0 0 2.475 0zm7.995-8.152a.25.25 0 0 1-.07.22l1.062 1.06a1.75 1.75 0 0 0 .486-1.536z"/><path d="M7 3.5c.496.484 1.554.87 2.5.5l4.449-1.778C17.719.75 19.48 7 16.485 9M13.238 13.847a.75.75 0 1 0 1.468.306zM12 14l-.549.511zm-1.238.153a.75.75 0 1 0-1.468-.306zm3.741-1.602a.75.75 0 0 0-1.062-1.059zM9.497 15.45a.75.75 0 0 0 1.062 1.059zm3.451-2.403c.256.257.334.589.29.8l1.468.307c.16-.766-.128-1.597-.696-2.166zm1.062-1.06c-.324-.324-.759-.6-1.245-.699-.511-.103-1.09-.002-1.543.452l1.063 1.06c.03-.031.052-.04.067-.044a.3.3 0 0 1 .117.003c.132.026.313.12.479.288zm-2.788-.247c-.231.233-.4.501-.48.805-.081.305-.06.596.013.851.136.479.463.866.696 1.117l1.098-1.024a2.6 2.6 0 0 1-.243-.295.8.8 0 0 1-.109-.208c-.01-.04-.007-.053-.006-.057.002-.005.014-.05.094-.13zm-.17 3.215c-.256-.257-.334-.589-.29-.8l-1.468-.307c-.16.766.128 1.597.696 2.166zm-1.062 1.06c.324.324.759.6 1.245.699.511.103 1.09.002 1.543-.452l-1.063-1.06a.14.14 0 0 1-.067.044.3.3 0 0 1-.117-.003 1 1 0 0 1-.479-.288zm2.788.247c.231-.233.4-.501.48-.805.081-.305.06-.596-.013-.851-.136-.479-.463-.866-.696-1.117l-1.098 1.024q.148.156.243.295a.8.8 0 0 1 .109.208c.01.04.007.053.006.057-.002.005-.014.05-.094.13zm1.232-3.215.493-.495-1.062-1.059-.493.495zm-4.02 1.908-.493.495 1.062 1.059.493-.495z"/></svg>