<svg xmlns="http://www.w3.org/2000/svg" viewBox="0 0 24 24"><path d="M22 8.5a2.5 2.5 0 1 1-5 0 2.5 2.5 0 0 1 5 0"/><path d="M20.895 10.653q.102.67.103 1.37c0 4.982-4.026 9.021-8.994 9.021a8.7 8.7 0 0 1-3.776-.845m12.93-13.793c1.915-4.094.218-4.753-1.813-4.24-1.445.365-3.049 1.397-3.51 1.68-1.17-.557-2.45-.844-3.83-.844-4.968 0-8.994 4.039-8.994 9.02a9 9 0 0 0 .853 3.842m4.364 4.335c2.58-1.67 6.595-4.784 10.08-9.352m-10.08 9.352c-.786.549-3.018 1.807-4.577 1.82-1.82.017-2.634-1.46.213-6.155m0 0c.366.78.84 1.498 1.404 2.136"/></svg>