<svg xmlns="http://www.w3.org/2000/svg" viewBox="0 0 24 24"><path d="m22 3-2 2.5 2 .7M2 3l2 2.5-2 .7m10-.533V7.5m3-2.275.793 1.784M9 5.225l-.82 1.796m10.762 1.96C16.863 10.272 14.502 11 12 11s-4.863-.729-6.942-2.018c-1.102-.684-1.36-2.368-.693-3.622.734-1.378 2.29-1.68 3.543-1.036A8.9 8.9 0 0 0 12 5.326a8.9 8.9 0 0 0 4.092-1.002c1.253-.644 2.81-.342 3.543 1.036.668 1.254.41 2.938-.693 3.622M12 15.667V17.5m0-1.833c1.04 0 2.046-.154 3-.442m-3 .442c-1.04 0-2.046-.154-3-.442m-5.071.474c-.706 1.179-.433 2.762.732 3.404a15.14 15.14 0 0 0 14.678 0c1.165-.643 1.438-2.225.732-3.404m-16.142 0c.775-1.295 2.42-1.579 3.745-.974q.644.294 1.326.5m-5.071.474L2 13m1.929 2.7L2 16.2m18.071-.5c-.776-1.296-2.42-1.58-3.745-.975q-.643.294-1.326.5m5.071.474 1.929.5m-1.929-.532L22 13m-7 2.225.766 1.771M9 15.226l-.781 1.785"/></svg>