<svg xmlns="http://www.w3.org/2000/svg" viewBox="0 0 24 24"><path d="M15.6 5.45a.75.75 0 1 0-1.2-.9zM13.5 7l-.6-.45a.75.75 0 0 0 .6 1.2zm3 0 .6.45a.75.75 0 0 0-.6-1.2zm-2.1 1.55a.75.75 0 1 0 1.2.9zM19.25 7A4.25 4.25 0 0 1 15 11.25v1.5A5.75 5.75 0 0 0 20.75 7zM15 11.25A4.25 4.25 0 0 1 10.75 7h-1.5A5.75 5.75 0 0 0 15 12.75zM10.75 7A4.25 4.25 0 0 1 15 2.75v-1.5A5.75 5.75 0 0 0 9.25 7zM15 2.75A4.25 4.25 0 0 1 19.25 7h1.5A5.75 5.75 0 0 0 15 1.25zm-.6 1.8-1.5 2 1.2.9 1.5-2zm-.9 3.2h3v-1.5h-3zm2.4-1.2-1.5 2 1.2.9 1.5-2zM4 14h2.486a2 2 0 0 1 .964.248l2.05 1.127h1c1.5 0 2.5 1.149 2.5 2.125l-2.684.894a1 1 0 0 1-.632 0L7 17.5m6-.5 4.21-1.404a2 2 0 0 1 2.49 1.155.877.877 0 0 1-.422 1.11l-7.585 3.792a2 2 0 0 1-1.44.136L4 20.019"/></svg>