<svg xmlns="http://www.w3.org/2000/svg" viewBox="0 0 24 24"><path d="m10 20.5-.707-.707a1 1 0 0 0-.707-.293H5.5a1 1 0 0 1-1-1v-3.138a1 1 0 0 0-.232-.64L2.533 12.64a1 1 0 0 1 0-1.28l1.735-2.082a1 1 0 0 0 .232-.64V5.5a1 1 0 0 1 1-1h3.138a1 1 0 0 0 .64-.232l2.082-1.735a1 1 0 0 1 1.28 0l2.082 1.735a1 1 0 0 0 .64.232H18.5a1 1 0 0 1 1 1v3.086a1 1 0 0 0 .293.707L20.5 10"/><path d="M14.384 9.437a3.5 3.5 0 0 0-4.947 4.947M15.53 16.47a.75.75 0 1 0-1.06 1.06zm.97 2.03-.53.53a.75.75 0 0 0 1.106-.05zm3.076-2.52a.75.75 0 0 0-1.152-.96zM22.75 17A5.75 5.75 0 0 0 17 11.25v1.5A4.25 4.25 0 0 1 21.25 17zM17 11.25A5.75 5.75 0 0 0 11.25 17h1.5A4.25 4.25 0 0 1 17 12.75zM11.25 17A5.75 5.75 0 0 0 17 22.75v-1.5A4.25 4.25 0 0 1 12.75 17zM17 22.75A5.75 5.75 0 0 0 22.75 17h-1.5A4.25 4.25 0 0 1 17 21.25zm-2.53-5.22 1.5 1.5 1.06-1.06-1.5-1.5zm2.606 1.45 2.5-3-1.152-.96-2.5 3z"/></svg>