<svg xmlns="http://www.w3.org/2000/svg" viewBox="0 0 24 24"><path d="m5 6-.67-.335A.75.75 0 0 0 4.25 6zm14 0h.75a.75.75 0 0 0-.08-.335zm-.894-1.789-.671.336zM16.816 2.3l.394-.638zm1.598 13.115-.53-.53zm-12.828 0-.53.53zM4.25 6v6h1.5V6zM9 16.75h6v-1.5H9zM19.75 12V6h-1.5v6zM5 6.75h14v-1.5H5zm.67-.415.895-1.788-1.341-.671-.895 1.789zm14-.67-.894-1.79-1.341.672.894 1.788zM9.473 2.75h5.056v-1.5H9.472zm9.304 1.126c-.262-.524-.483-.969-.703-1.315-.23-.361-.492-.67-.863-.9l-.789 1.276c.112.069.226.178.386.43.17.265.352.628.628 1.18zM14.528 2.75c.617 0 1.023 0 1.336.033.297.031.446.085.557.154l.789-1.276c-.372-.23-.766-.326-1.191-.37-.409-.042-.905-.041-1.491-.041zM6.565 4.547c.276-.552.458-.915.628-1.18.16-.252.274-.361.386-.43L6.79 1.66c-.371.23-.633.539-.863.9-.22.346-.441.79-.703 1.315zM9.472 1.25c-.586 0-1.082 0-1.49.041-.426.044-.82.14-1.192.37l.789 1.276c.111-.07.26-.123.557-.154.313-.032.72-.033 1.336-.033zM15 16.75c.922 0 1.688.002 2.294-.08.628-.084 1.195-.27 1.65-.726l-1.06-1.06c-.13.13-.328.237-.79.3-.482.064-1.13.066-2.094.066zM18.25 12c0 .964-.002 1.612-.067 2.095-.062.461-.169.659-.3.789l1.062 1.06c.455-.455.64-1.022.725-1.65.082-.606.08-1.372.08-2.294zm-14 0c0 .922-.002 1.688.08 2.294.084.628.27 1.195.725 1.65l1.061-1.06c-.13-.13-.237-.328-.3-.79-.064-.482-.066-1.13-.066-2.094zM9 15.25c-.964 0-1.612-.002-2.095-.066-.461-.063-.659-.17-.789-.3l-1.06 1.06c.455.456 1.022.642 1.65.726.606.082 1.372.08 2.294.08zM10.5 9h3"/><path d="M2.5 16H19a3 3 0 1 1 0 6H2.5M17.991 19H18m-6.004 0h.008M6 19h.009"/></svg>