<svg xmlns="http://www.w3.org/2000/svg" viewBox="0 0 24 24"><path d="M15.333 12A3.333 3.333 0 0 1 12 15.333M15.333 12A3.333 3.333 0 0 0 12 8.667M15.333 12H17m-5 3.333A3.333 3.333 0 0 1 8.667 12M12 15.333V17m-3.333-5A3.333 3.333 0 0 1 12 8.667M8.667 12H7m5-3.333V7m2.357 2.643 1.179-1.179m-5.893 5.893-1.179 1.179m5.893-1.179 1.179 1.179M9.643 9.643 8.464 8.464M9.5 4.5 9.96 2A10.22 10.22 0 0 0 2 9.96m17.5-.46 2.5.46A10.22 10.22 0 0 0 14.04 2m.46 17.5-.46 2.5A10.22 10.22 0 0 0 22 14.04M9.96 22A10.22 10.22 0 0 1 2 14.04l2.5.46"/></svg>