<svg xmlns="http://www.w3.org/2000/svg" viewBox="0 0 24 24"><path d="m8 15 .335.67zm-5.6 5.55a.75.75 0 1 0 1.2.9zm7.263-7.22-1.999 1 .672 1.34 1.998-1zm-1.998 1c-.634.316-1.055.75-1.283 1.279-.22.508-.228 1.026-.193 1.453a9 9 0 0 0 .077.61c.03.194.056.353.073.506.038.327.009.447-.011.487l1.341.67c.23-.46.202-.965.16-1.326-.02-.19-.053-.39-.08-.564a7 7 0 0 1-.065-.507c-.027-.323-.003-.555.075-.734.068-.159.21-.35.576-.533zm-1.337 4.335c-.003.005-.001.003-.007.007a.5.5 0 0 1-.148.058c-.232.065-.463.079-.922.155-.843.14-1.938.447-2.851 1.665l1.2.9c.587-.782 1.242-.976 1.898-1.085.29-.049.747-.098 1.077-.19.383-.106.836-.322 1.094-.84z"/><path d="M9.89 14.11c2.235 2.233 5.299 2.792 8.092 0 2.793-2.794 4.045-8.092 2.023-10.115-2.023-2.022-7.321-.77-10.114 2.023s-2.234 5.857 0 8.091"/></svg>