<svg xmlns="http://www.w3.org/2000/svg" viewBox="0 0 24 24"><path d="M3 4v16a2 2 0 0 0 2 2h14a2 2 0 0 0 2-2V4a2 2 0 0 0-2-2H5a2 2 0 0 0-2 2"/><path d="m4 2 2.563 4.272A1.5 1.5 0 0 0 7.85 7h8.302a1.5 1.5 0 0 0 1.286-.728L20 2M12.03 10.53a.75.75 0 1 0-1.06-1.06zm-3.56 1.44a.75.75 0 1 0 1.06 1.06zm8.06 3.06a.75.75 0 1 0-1.06-1.06zm-3.56 1.44a.75.75 0 1 0 1.06 1.06zm-5.5 1a.75.75 0 1 0 1.06 1.06zm6.257-5.197-.53.53zM14 16.5l.329-.674-.004-.002-.013-.006-.056-.028a16 16 0 0 1-.917-.5c-.568-.332-1.177-.734-1.536-1.093l-1.06 1.06c.505.506 1.259.99 1.839 1.328a19 19 0 0 0 1.064.577l.018.008.005.003h.001l.001.001zm-2.197-2.303c-.359-.359-.761-.968-1.093-1.536a18 18 0 0 1-.5-.917l-.028-.056-.006-.014-.002-.002v-.001L9.5 12l-.674.33.001.001.003.005.041.083.12.234c.103.196.25.466.424.765.339.58.822 1.335 1.327 1.84zM10.97 9.47l-2 2 1.06 1.06 2-2zm-2 2-.5.5 1.06 1.06.5-.5zm6.5 2.5-2 2 1.06 1.06 2-2zm-2 2-.5.5 1.06 1.06.5-.5zm-2.728-1.773L7.47 17.47l1.06 1.06 3.273-3.272zM11 10.5l-.329.674.004.002.013.006.056.028q.076.038.212.11c.181.095.43.23.705.39.568.332 1.177.734 1.536 1.093l1.06-1.06c-.505-.506-1.259-.99-1.839-1.328a19 19 0 0 0-1.082-.585l-.005-.003h-.001l-.001-.001zm2.197 2.303c.359.359.761.968 1.093 1.536a18 18 0 0 1 .5.917l.028.056.006.014.002.002v.001L15.5 15l.674-.329-.001-.002-.003-.005-.008-.018-.153-.299a19 19 0 0 0-.424-.765c-.339-.58-.822-1.335-1.327-1.84z"/></svg>