<svg xmlns="http://www.w3.org/2000/svg" viewBox="0 0 24 24"><path d="M17.725 17.776c2.361 0 4.275-1.783 4.275-3.983S20.086 9.81 17.725 9.81h-.021m0 0q.021-.218.021-.442c0-2.689-2.34-4.868-5.225-4.868-2.733 0-4.976 1.955-5.206 4.445m10.41.865a4.68 4.68 0 0 1-1.173 2.655m-9.237-3.52C4.884 9.16 3 11.05 3 13.351c0 4.783 8.43 6.233 11.146 2.655.725-1.169-.246-2.655-1.646-2.655-1.05 0-1.9.792-1.9 1.77M7.294 8.945q.225-.02.456-.02c1.07 0 2.057.33 2.85.885"/><path d="M7.955 2a.75.75 0 1 0-1.5 0zM2 6.75a.75.75 0 0 0 0 1.5zm2.03-3.507a.75.75 0 1 0-1.06 1.06zm-.162 1.96a.75.75 0 0 0 1.06-1.061zm-.349 5.264a.75.75 0 0 0 1.174-.934zM7.955 3.5V2h-1.5v1.5zM2 8.25h1.235v-1.5H2zm.97-3.946.898.898 1.06-1.06-.898-.899zM3.985 7.5c0-1.8 1.447-3.25 3.22-3.25v-1.5c-2.612 0-4.72 2.132-4.72 4.75zm3.22-3.25c1.01 0 2.139.533 2.718 1.23l1.154-.96C10.2 3.466 8.64 2.75 7.205 2.75zM4.693 9.533A3.25 3.25 0 0 1 3.985 7.5h-1.5c0 1.121.387 2.154 1.034 2.967zM14.654 21.915q.218.084.461.085c.765 0 1.385-.672 1.385-1.5s-.62-1.5-1.385-1.5c-.271 0-.524.085-.738.23-1.061.793-3.027 1.808-5.262 2.071m-2.769-.107a7.6 7.6 0 0 1-1.846-.646M20 21h2"/></svg>