<svg xmlns="http://www.w3.org/2000/svg" viewBox="0 0 24 24"><path d="M12.501 14.5V16M9.5 17.5V19m6-1.5V19M7 20.5V22m11-1.5V22m-5.5-1.5V22M17.478 11.01h.022c2.485 0 4.5 2.017 4.5 4.506 0 1.167-.318 2.2-1 2.984m-3.522-7.49A5.504 5.504 0 0 0 12 5a5.504 5.504 0 0 0-5.48 5.03m10.958.98c-.083.912-.478 1.49-.978 1.99m-9.98-2.97A5.005 5.005 0 0 0 2 15.015c0 1.639.786 2.639 2 3.485m2.52-8.47q.237-.022.48-.022c.91 0 1.765.243 2.5.67"/><path d="M7.455 3.5V2m0 1.5c-2.192 0-3.97 1.79-3.97 4m3.97-4A3.95 3.95 0 0 1 10.5 4.933M2 7.5h1.485m0 0c0 1.195.52 2.267 1.344 3m-1.344-7 1.163 1.172"/></svg>