<svg xmlns="http://www.w3.org/2000/svg" viewBox="0 0 24 24"><path d="m10.8 15 1.2 1.143m0 0 1.2 1.143M12 16.143 13.2 15M12 16.143l-1.2 1.143m3.8 2.428 1.2 1.143m0 0L17 22m-1.2-1.143 1.2-1.143m-1.2 1.143L14.6 22M7 19.714l1.2 1.143m0 0L9.4 22m-1.2-1.143 1.2-1.143m-1.2 1.143L7 22M17.478 11.01h.022c2.485 0 4.5 2.017 4.5 4.506 0 1.422-.472 2.683-1.5 3.484m-3.022-7.99A5.504 5.504 0 0 0 12 5a5.504 5.504 0 0 0-5.48 5.03m10.958.98c-.083.912-.478 1.49-.978 1.99m-9.98-2.97A5.005 5.005 0 0 0 2 15.015C2 16.87 3.006 18.141 4.5 19m2.02-8.97q.237-.022.48-.022c.91 0 1.765.243 2.5.67"/><path d="M7.455 3.5V2m0 1.5c-2.192 0-3.97 1.79-3.97 4m3.97-4A3.95 3.95 0 0 1 10.5 4.933M2 7.5h1.485m0 0c0 1.195.52 2.267 1.344 3m-1.344-7 1.163 1.172"/></svg>