<svg xmlns="http://www.w3.org/2000/svg" viewBox="0 0 24 24"><path d="M16.26 16.32a.75.75 0 0 1 1.06-1.06zM5 7l-.469.586a.75.75 0 0 1-.259-.404zM4 3l-.728.182a.75.75 0 0 1 .91-.91zm4 1 .182-.728c.16.04.301.131.404.26zm12 8.25a.75.75 0 0 1 0 1.5zm-1.302 1.252.53.53zm-4.196 4.196-.53-.53zM14.75 19a.75.75 0 0 1-1.5 0zM7.969 8.414a.75.75 0 1 1-.938 1.172zm2.617-2.383a.75.75 0 0 1-1.172.938zm2.905 9.52a.75.75 0 1 1 1.018-1.102zm1.958-2.042a.75.75 0 1 1 1.102-1.018zm4.655 6.544a.67.67 0 0 0 .95 0l1.06 1.061a2.17 2.17 0 0 1-3.07 0zm.95 0a.67.67 0 0 0 0-.949l1.06-1.06a2.17 2.17 0 0 1 0 3.07zm0-.949a.67.67 0 0 0-.95 0l-1.06-1.06a2.17 2.17 0 0 1 3.07 0zm-.95 0a.67.67 0 0 0 0 .95l-1.06 1.06a2.17 2.17 0 0 1 0-3.07zM17.32 15.26l2.784 2.785-1.06 1.06-2.785-2.784zM4.272 7.182l-1-4 1.456-.364 1 4zm-.09-4.91 4 1-.364 1.456-4-1zm15.046 11.76-4.195 4.196-1.061-1.06 4.195-4.196zm-4.195 4.196c-.188.188-.283.427-.283.772h-1.5c0-.66.2-1.31.722-1.833zM20 13.75c-.345 0-.584.095-.772.283l-1.06-1.061c.522-.523 1.172-.722 1.832-.722zM7.031 9.586l-2.5-2 .938-1.172 2.5 2zM8.586 3.53l2 2.5-1.172.938-2-2.5zm6.274 13.283-1.369-1.263 1.018-1.102 1.368 1.263zm1.691-4.323 1.263 1.369-1.102 1.017-1.263-1.368zM7.74 16.32a.75.75 0 0 0-1.06-1.06zM19 7l.5.56a.75.75 0 0 0 .228-.378zm1-4 .728.182a.75.75 0 0 0-.91-.91zm-4 1-.182-.728a.75.75 0 0 0-.377.228zM4 12.25a.75.75 0 0 0 0 1.5zm1.302 1.252-.53.53zm4.196 4.196.53-.53zM9.25 19a.75.75 0 0 0 1.5 0zm-5.354 1.053a.67.67 0 0 1-.95 0l-1.06 1.061a2.17 2.17 0 0 0 3.07 0zm-.95 0a.67.67 0 0 1 0-.949l-1.06-1.06a2.17 2.17 0 0 0 0 3.07zm0-.949a.67.67 0 0 1 .95 0l1.06-1.06a2.17 2.17 0 0 0-3.07 0zm.95 0a.67.67 0 0 1 0 .95l1.06 1.06a2.17 2.17 0 0 0 0-3.07zM6.68 15.26l-2.784 2.785 1.06 1.06 2.785-2.784zm2.451 1.564L19.5 7.559l-1-1.118-10.368 9.263zm10.597-9.641 1-4-1.456-.364-1 4zm.09-4.91-4 1 .364 1.456 4-1zM15.441 3.5 6.178 13.87l1.118 1 9.263-10.37zM4.772 14.033l4.195 4.195 1.061-1.06-4.195-4.196zm4.195 4.195c.188.188.283.427.283.772h1.5c0-.66-.2-1.31-.722-1.833zM4 13.75c.345 0 .584.095.772.283l1.06-1.061C5.31 12.449 4.66 12.25 4 12.25z"/></svg>