<svg xmlns="http://www.w3.org/2000/svg" viewBox="0 0 24 24"><path d="M12 9c4.904 0 8.984 3.884 9.837 9.008C22.017 19.098 21.105 20 20 20H4c-1.105 0-2.018-.902-1.836-1.992C3.016 12.884 7.095 9 12 9"/><path d="M21.33 15c.967-1.272.888-3.03-.24-4.222a3.3 3.3 0 0 1-.898-1.975c-.148-1.677-1.566-3.016-3.344-3.144l-.204-.015a4 4 0 0 1-2.153-.812c-1.445-1.11-3.537-1.11-4.981 0a4 4 0 0 1-2.154.812l-.204.015c-1.778.128-3.196 1.467-3.344 3.144a3.3 3.3 0 0 1-.898 1.975C1.782 11.97 1.703 13.728 2.67 15M5.509 17H5.5M7 14h-.009"/></svg>