<svg xmlns="http://www.w3.org/2000/svg" viewBox="0 0 25 24"><path d="m8.09 15-5.474 2.985a.1.1 0 0 0-.024.157l1.885 1.929M9.5 16.553l-2.994 5.333a.1.1 0 0 1-.157.022l-1.872-1.837m0 0 .98-1.035M20.157 6.767a1.714 1.714 0 1 1-2.425-2.424 1.714 1.714 0 0 1 2.425 2.424M11.267 15.658a1.714 1.714 0 1 1-2.424-2.425 1.714 1.714 0 0 1 2.424 2.425M17.732 15.658a1.715 1.715 0 1 1 2.425-2.425 1.715 1.715 0 0 1-2.425 2.425M8.843 6.767a1.714 1.714 0 1 1 2.424-2.424 1.714 1.714 0 0 1-2.424 2.424M20.786 11.714a1.714 1.714 0 1 1 0-3.429 1.714 1.714 0 0 1 0 3.429M8.214 11.715a1.714 1.714 0 1 1 0-3.429 1.714 1.714 0 0 1 0 3.429M12.785 16.286a1.714 1.714 0 1 1 3.43 0 1.714 1.714 0 0 1-3.43 0M12.785 3.714a1.714 1.714 0 1 1 3.429 0 1.714 1.714 0 0 1-3.429 0"/></svg>