<svg xmlns="http://www.w3.org/2000/svg" viewBox="0 0 24 24"><path d="M21.861 5.392c.427 1.104-.171 1.86-1.33 2.606-.935.6-2.126 1.252-3.389 2.365-1.237 1.091-2.444 2.406-3.517 3.7a55 55 0 0 0-2.62 3.437c-.414.591-.993 1.473-.993 1.473A2.25 2.25 0 0 1 8.082 20a2.24 2.24 0 0 1-1.9-1.075c-.998-1.677-1.768-2.34-2.122-2.577-.948-.637-2.06-.73-2.06-2.214C2 12.955 2.997 12 4.224 12c.866.032 1.672.373 2.385.853.456.306.94.712 1.442 1.245.59-.804 1.3-1.733 2.098-2.693 1.157-1.395 2.523-2.892 3.988-4.184 1.44-1.27 3.104-2.459 4.869-3.087 1.15-.41 2.43.153 2.856 1.258"/></svg>