<svg xmlns="http://www.w3.org/2000/svg" viewBox="0 0 24 24"><path d="M21.897 6.63c.32.898-.13 1.513-.998 2.118-.702.488-1.595 1.017-2.542 1.922-.928.887-1.834 1.955-2.639 3.006a39 39 0 0 0-2.71 3.99 1.65 1.65 0 0 1-1.446.834 1.66 1.66 0 0 1-1.426-.873c-.748-1.363-1.326-1.901-1.592-2.094-.737-.537-1.544-.63-1.544-1.8C7 12.776 7.746 12 8.667 12c.658.027 1.261.309 1.789.693.342.249.704.578 1.081 1.012.443-.654.976-1.408 1.574-2.189.868-1.133 1.892-2.35 2.99-3.399 1.08-1.032 2.33-1.998 3.653-2.508.863-.333 1.822.124 2.142 1.022M4.44 12.076a2.7 2.7 0 0 0-.6-.125l-.141-.006c-.938 0-1.7.783-1.7 1.748 0 .874.624 1.598 1.438 1.728q.042.02.137.087c.27.195.86.737 1.623 2.111.298.538.851.873 1.453.88.197.004.39-.03.57-.093M15 5.5c-1.35.515-2.622 1.489-3.723 2.53-.384.363-.76.746-1.123 1.139"/></svg>