<svg xmlns="http://www.w3.org/2000/svg" viewBox="0 0 24 24"><path d="M11 14H9a7 7 0 0 0-7 7h16a7 7 0 0 0-7-7M14 7a4 4 0 1 1-8 0 4 4 0 0 1 8 0M19.5 10.143V11m0-.857c-.723 0-1.36-.379-1.734-.954m1.734.954c.723 0 1.36-.379 1.734-.954m-3.468 0L17 9.714m.766-.525c-.22-.34-.35-.75-.35-1.189s.13-.849.35-1.189m3.468 2.378.766.525m-.766-.525c.22-.34.35-.75.35-1.189s-.13-.849-.35-1.189M19.5 5.857c.723 0 1.36.379 1.734.954M19.5 5.857c-.723 0-1.36.379-1.734.954m1.734-.954V5m1.734 1.811L22 6.286m-4.234.525L17 6.286"/></svg>