<svg xmlns="http://www.w3.org/2000/svg" viewBox="0 0 24 24"><path d="M15 2.458A10 10 0 0 0 12 2C6.477 2 2 6.477 2 12s4.477 10 10 10 10-4.477 10-10c0-1.045-.16-2.053-.458-3"/><path d="M15 10a3 3 0 1 1-6 0 3 3 0 0 1 6 0M5.5 19.5l.56-.98A5 5 0 0 1 10.402 16h3.196a5 5 0 0 1 4.341 2.52l.56.98M18.974 2.021c.006-.028.046-.028.052 0a3.79 3.79 0 0 0 2.953 2.953c.028.006.028.046 0 .052a3.79 3.79 0 0 0-2.953 2.953c-.006.028-.046.028-.052 0a3.79 3.79 0 0 0-2.953-2.953c-.028-.006-.028-.046 0-.052a3.79 3.79 0 0 0 2.953-2.953"/></svg>