<svg xmlns="http://www.w3.org/2000/svg" viewBox="0 0 24 24"><path d="M10 12v.75a.75.75 0 0 0 .75-.75zm-8 0h-.75c0 .414.336.75.75.75zm5.25-8c0 .69-.56 1.25-1.25 1.25v1.5A2.75 2.75 0 0 0 8.75 4zM6 5.25c-.69 0-1.25-.56-1.25-1.25h-1.5A2.75 2.75 0 0 0 6 6.75zM4.75 4c0-.69.56-1.25 1.25-1.25v-1.5A2.75 2.75 0 0 0 3.25 4zM6 2.75c.69 0 1.25.56 1.25 1.25h1.5A2.75 2.75 0 0 0 6 1.25zm4 8.5H2v1.5h8zM2.75 12A3.25 3.25 0 0 1 6 8.75v-1.5A4.75 4.75 0 0 0 1.25 12zM6 8.75A3.25 3.25 0 0 1 9.25 12h1.5A4.75 4.75 0 0 0 6 7.25zM22 22v.75a.75.75 0 0 0 .75-.75zm-8 0h-.75c0 .414.336.75.75.75zm5.25-8c0 .69-.56 1.25-1.25 1.25v1.5A2.75 2.75 0 0 0 20.75 14zM18 15.25c-.69 0-1.25-.56-1.25-1.25h-1.5A2.75 2.75 0 0 0 18 16.75zM16.75 14c0-.69.56-1.25 1.25-1.25v-1.5A2.75 2.75 0 0 0 15.25 14zM18 12.75c.69 0 1.25.56 1.25 1.25h1.5A2.75 2.75 0 0 0 18 11.25zm4 8.5h-8v1.5h8zm-7.25.75A3.25 3.25 0 0 1 18 18.75v-1.5A4.75 4.75 0 0 0 13.25 22zM18 18.75A3.25 3.25 0 0 1 21.25 22h1.5A4.75 4.75 0 0 0 18 17.25zM4 15c0 3.317 2.683 6 6 6v-2.5M20 9c0-3.317-2.683-6-6-6v2.5"/></svg>