<svg xmlns="http://www.w3.org/2000/svg" viewBox="0 0 24 24"><path d="M11 20H2a7 7 0 0 1 7-7h2q.774.002 1.5.161M14 6a4 4 0 1 1-8 0 4 4 0 0 1 8 0M21.467 22.528a.75.75 0 0 0 1.066-1.055zm-1.845-1.865 1.845 1.864 1.066-1.055-1.844-1.864zM21.95 17.6a4.35 4.35 0 0 0-4.35-4.35v1.5a2.85 2.85 0 0 1 2.85 2.85zm-4.35-4.35a4.35 4.35 0 0 0-4.35 4.35h1.5a2.85 2.85 0 0 1 2.85-2.85zm-4.35 4.35a4.35 4.35 0 0 0 4.35 4.35v-1.5a2.85 2.85 0 0 1-2.85-2.85zm4.35 4.35a4.35 4.35 0 0 0 4.35-4.35h-1.5a2.85 2.85 0 0 1-2.85 2.85z"/></svg>