<svg xmlns="http://www.w3.org/2000/svg" viewBox="0 0 24 24"><path d="M21.468 14.529a.75.75 0 0 0 1.064-1.058zm-1.386-1.396 1.386 1.396 1.064-1.058-1.386-1.395zM22.15 10.7a3.45 3.45 0 0 0-3.45-3.45v1.5a1.95 1.95 0 0 1 1.95 1.95zM18.7 7.25a3.45 3.45 0 0 0-3.45 3.45h1.5a1.95 1.95 0 0 1 1.95-1.95zm-3.45 3.45a3.45 3.45 0 0 0 3.45 3.45v-1.5a1.95 1.95 0 0 1-1.95-1.95zm3.45 3.45a3.45 3.45 0 0 0 3.45-3.45h-1.5a1.95 1.95 0 0 1-1.95 1.95zM11 14H9a7 7 0 0 0-7 7h16a7 7 0 0 0-7-7M14 7a4 4 0 1 1-8 0 4 4 0 0 1 8 0"/></svg>