<svg xmlns="http://www.w3.org/2000/svg" viewBox="0 0 24 24"><path d="M2 21.193c.685 1.051 1.571 1.051 2.273 0 2.257-3.452 4.407 2.483 6 .04 2.43-3.664 4.178 2.689 6-.04 2.376-3.635 3.857 2.385 5.727.391M12.293 2.005A9 9 0 0 0 12 2c-4.694 0-8.5 3.838-8.5 8.571q0 1.057.24 2.037m8.553-10.603c4.559.156 8.207 3.931 8.207 8.566m-8.207-8.566L12.297 2m-.004.005c-1.441 1.608-1.847 4.603-.718 8.834m8.925-.268c-2.39-3.183-6.89-4.695-9.35-4.19m9.35 4.19A8.58 8.58 0 0 1 17.622 17M3.741 12.608c1.457.624 2.99.75 4.481.312m-4.481-.312C4.164 14.325 4.959 15.835 6.5 17c4.216-.136 8.679-2.464 9.75-4.714m-8.028.634c1.162-.342 2.298-1.025 3.353-2.08m-3.353 2.08c-1.603-1.79-2.063-6.057-.46-9.634m3.813 7.553C15.56 10.355 18.278 13.393 19 15"/></svg>