<svg xmlns="http://www.w3.org/2000/svg" viewBox="0 0 24 24"><path d="M14.625 5.75a1.45 1.45 0 0 1 1.858-.864 1.443 1.443 0 0 1 .866 1.851l-.661 1.81M14.625 5.75l.66-1.81a1.443 1.443 0 0 0-.866-1.851 1.45 1.45 0 0 0-1.858.863l-.495 1.358m2.558 1.44L13 10m-.934-5.691a1.443 1.443 0 0 0-.867-1.852 1.45 1.45 0 0 0-1.858.864l-2.797 7.658-.934-2.005a1.63 1.63 0 0 0-2.326-.7 1.63 1.63 0 0 0-.714 1.865L5 16.5l-.824 2.37m7.89-14.561L10.5 8.5M12.803 22l.697-2s1.87-.868 2.21-1.259c.586-.674.945-1.657 1.664-3.624l2.038-5.581a1.443 1.443 0 0 0-.866-1.852 1.45 1.45 0 0 0-1.858.863M15.5 12l1.188-3.453M21.33 13c.547 1.635-.273 3.426-1.83 4"/></svg>