<svg xmlns="http://www.w3.org/2000/svg" viewBox="0 0 24 24"><path d="M11.9 5.701a1.404 1.404 0 0 0-.866-1.811c-.752-.267-1.584.11-1.858.844l-2.632 7.05-.934-1.962c-.41-.86-1.495-1.18-2.326-.685a1.58 1.58 0 0 0-.714 1.824l1.4 4.526c.317 1.027.476 1.54.732 1.986.39.68.946 1.255 1.62 1.672.441.274.957.457 1.989.823 1.967.698 2.951 1.048 3.844 1.032a4.88 4.88 0 0 0 3.554-1.623c.587-.66.946-1.621 1.664-3.546l2.04-5.459a1.404 1.404 0 0 0-.867-1.811c-.752-.267-1.584.11-1.858.844m-4.787-3.704.66-1.77c.274-.734 1.106-1.112 1.858-.845a1.404 1.404 0 0 1 .867 1.811l-.661 1.77M11.9 5.702l-1.487 3.984m4.212-3.017c.274-.734 1.105-1.112 1.858-.845a1.404 1.404 0 0 1 .866 1.812l-.661 1.77m-2.063-2.737-1.488 3.984m3.551-1.247-.826 2.214M21.33 14c.547 1.635-.273 3.426-1.83 4"/></svg>