<svg xmlns="http://www.w3.org/2000/svg" viewBox="0 0 24 24"><path d="M19 22H5a2 2 0 0 1-2-2V4a2 2 0 0 1 2-2h7l7 7v2m-.5-2h-4.502a2 2 0 0 1-2-2V2.5"/><path d="M16.5 14.75a.75.75 0 0 0 0-1.5zm-3-.75v-.75a.75.75 0 0 0-.75.75zm0 2.5h-.75c0 .414.336.75.75.75zm3 0h.75a.75.75 0 0 0-.75-.75zm0 2.5v.75a.75.75 0 0 0 .75-.75zm-3-.75a.75.75 0 0 0 0 1.5zm-5.916-4.706a.75.75 0 0 0-1.168.94zm2.837 5.861a.75.75 0 0 0 1.158-.953zm1.032-4.947a.75.75 0 1 0-1.188-.916zm-5.03 4.086a.75.75 0 1 0 1.19.912zM19.75 14a.75.75 0 0 0-1.5 0zM19 19h-.75c0 .414.336.75.75.75zm2 .75a.75.75 0 0 0 0-1.5zm-4.5-6.5h-3v1.5h3zm-3.75.75v2.5h1.5V14zm.75 3.25h3v-1.5h-3zm2.25-.75V19h1.5v-2.5zm.75 1.75h-3v1.5h3zM6.416 14.485l1.965 2.44 1.169-.94-1.966-2.441zm1.97 2.447 2.035 2.473 1.158-.953-2.034-2.473zm1.173-.018 1.894-2.456-1.188-.916-1.893 2.456zM8.37 16l-1.947 2.544 1.191.912 1.948-2.545zm9.881-2v5h1.5v-5zm.75 5.75h2v-1.5h-2z"/></svg>