<svg xmlns="http://www.w3.org/2000/svg" viewBox="0 0 24 24"><path d="m4 12.998.02-9.002A2 2 0 0 1 6.022 2l6.974.008L20 8.995l-.008 4.003M13 2.498v4.5a2 2 0 0 0 2 2h4.5M14.5 16.75a.75.75 0 0 0 0-1.5zm-3-.75v-.75a.75.75 0 0 0-.75.75zm0 3h-.75c0 .414.336.75.75.75zm3 0h.75a.75.75 0 0 0-.75-.75zm0 3v.75a.75.75 0 0 0 .75-.75zm-3-.75a.75.75 0 0 0 0 1.5zm-6.925-5.715a.75.75 0 0 0-1.15.964zm3.855 6.868a.75.75 0 1 0 1.14-.976zm.979-5.933a.75.75 0 1 0-1.17-.94zm-5.973 5.062a.75.75 0 0 0 1.172.936zM18.25 16a.75.75 0 0 0-1.5 0zm-.75 6h-.75c0 .414.336.75.75.75zm2.5.75a.75.75 0 0 0 0-1.5zm-5.5-7.5h-3v1.5h3zm-3.75.75v3h1.5v-3zm.75 3.75h3v-1.5h-3zm2.25-.75v3h1.5v-3zm.75 2.25h-3v1.5h3zM3.425 16.499l2.457 2.93 1.15-.964-2.457-2.93zm2.462 2.936 2.543 2.968 1.14-.976-2.544-2.968zm1.155-.019 2.367-2.946-1.17-.94-2.367 2.947zM5.87 18.48l-2.434 3.053 1.172.936 2.435-3.054zM16.75 16v6h1.5v-6zm.75 6.75H20v-1.5h-2.5z"/></svg>