<svg xmlns="http://www.w3.org/2000/svg" viewBox="0 0 24 24"><path d="M16.921 10.272a3.1 3.1 0 0 1-1.848 1.123m1.848-1.123c1.308-1.67.257-3.917-1.33-4.52m1.33 4.52c1.933 0 4.19 2.526 2.465 4.728M15.59 5.752C16.015 3.84 13.867 2 10.761 2c.715 1.175 1.19 2.791.011 3.502C9.035 6.55 5.89 6.553 6.5 10.322m9.092-4.57c-.164.742-.716 1.496-1.75 2.157M4.6 14.999c-1.517-1.935.111-4.36 1.9-4.677m0 0c.845-.15 1.77.03 2.5.603M3 15l2.026 5.672A2 2 0 0 0 6.91 22h10.18a2 2 0 0 0 1.884-1.328L21 15M2 15h20"/></svg>