<svg xmlns="http://www.w3.org/2000/svg" width="17" height="17" viewBox="0 0 17 17">
  <path d="M10.5,8.5a2,2,0,1,1-2-2A2,2,0,0,1,10.5,8.5ZM5.13,12.18A5.19,5.19,0,0,0,7,13.25v2.08a6.7,6.7,0,0,0,3,0V13.25a5.19,5.19,0,0,0,1.87-1.07l.9.51.89.52a6.91,6.91,0,0,0,.89-1.2,6.41,6.41,0,0,0,.62-1.39l-.9-.52-.89-.52A5.5,5.5,0,0,0,13.5,8.5a5.5,5.5,0,0,0-.12-1.08l.89-.52.9-.52A6.41,6.41,0,0,0,14.55,5a6.91,6.91,0,0,0-.89-1.2l-.89.52-.9.51A5.19,5.19,0,0,0,10,3.75V1.67a6.7,6.7,0,0,0-3,0V3.75A5.19,5.19,0,0,0,5.13,4.82l-.9-.51-.89-.52A6.91,6.91,0,0,0,2.45,5a6.41,6.41,0,0,0-.62,1.39l.9.52.89.52A5.5,5.5,0,0,0,3.5,8.5a5.5,5.5,0,0,0,.12,1.08l-.89.52-.9.52A6.41,6.41,0,0,0,2.45,12a6.91,6.91,0,0,0,.89,1.2l.89-.52Z" fill="none" stroke="#000" stroke-linecap="round" stroke-linejoin="round" stroke-width="1.5"/>
</svg>
