<svg xmlns="http://www.w3.org/2000/svg" width="20" height="20" viewBox="0 0 20 20">
  <path d="M12.29,10A2.29,2.29,0,1,1,10,7.71,2.3,2.3,0,0,1,12.29,10ZM6.15,14.2a5.56,5.56,0,0,0,2.14,1.22v2.39a7.79,7.79,0,0,0,3.42,0V15.42a5.56,5.56,0,0,0,2.14-1.22l1,.59,1,.6a8.48,8.48,0,0,0,1-1.38,7.53,7.53,0,0,0,.7-1.59l-1-.59-1-.59a5.56,5.56,0,0,0,0-2.48l1-.59,1-.59A7.53,7.53,0,0,0,16.92,6a8.07,8.07,0,0,0-1-1.38l-1,.6-1,.59a5.56,5.56,0,0,0-2.14-1.22V2.19a7.79,7.79,0,0,0-3.42,0V4.58A5.56,5.56,0,0,0,6.15,5.8l-1-.59-1-.6A8.07,8.07,0,0,0,3.08,6a7.53,7.53,0,0,0-.7,1.59l1,.59,1,.59a5.56,5.56,0,0,0,0,2.48l-1,.59-1,.59A7.53,7.53,0,0,0,3.08,14a8.48,8.48,0,0,0,1,1.38l1-.6Z" fill="none" stroke="#000" stroke-linecap="round" stroke-linejoin="round" stroke-width="1.5"/>
</svg>
