<svg viewBox="0 0 24 24" xmlns="http://www.w3.org/2000/svg"><path d="M18 16V16.01"/><path d="M6 16V16.01"/><circle cx="17" cy="6" r="4"/><path d="M17 4V6"/><path d="M17 7.98976V7.99976"/><path d="M20 12L21.6641 14.4962C21.8831 14.8247 22 15.2107 22 15.6056V21C22 21.5523 21.5523 22 21 22H20C19.4477 22 19 21.5523 19 21V19H5V21C5 21.5523 4.55228 22 4 22H3C2.44772 22 2 21.5523 2 21V15.6056C2 15.2107 2.11688 14.8247 2.3359 14.4962L4 12M20 12L18 12.5H6L4 12M20 12L22 10.5M4 12L5.98718 7.23077C6.29772 6.48548 7.02593 6 7.83333 6H10M4 12L2 10.5"/></svg>