<svg viewBox="0 0 24 24" xmlns="http://www.w3.org/2000/svg"><path d="M15 13.5V16.5C15 18.1569 16.3431 19.5 18 19.5H21"/><path d="M13.6914 7.5H13.7004"/><path d="M17 7.5L21.5 7.5"/><path d="M16.5537 2.5H2L2.8817 6.02682C2.95636 6.32546 3.16441 6.57307 3.44571 6.69809L7.17216 8.35429C7.3841 8.44849 7.55672 8.61344 7.66044 8.82089L9.72361 12.9472C9.893 13.286 10.2393 13.5 10.618 13.5H16.5537C19.5616 13.5 22 11.0376 22 8C22 4.96243 19.5616 2.5 16.5537 2.5Z"/><path d="M21 17.5V21.5"/><path d="M5 7C4.38625 7.54932 4 8.61151 4 9.50001C4 11.1569 5.34315 12.5 7 12.5C7.76835 12.5 8.46924 12.2112 9 11.7361"/></svg>