<svg viewBox="0 0 24 24" xmlns="http://www.w3.org/2000/svg"><path d="M7.81205 6.6438L2.08091 20.5623C1.72921 21.4164 2.58335 22.2705 3.43748 21.9188L17.356 16.1877C18.0416 15.9054 18.2194 15.0163 17.6951 14.492L9.50776 6.30466C8.98342 5.78032 8.09439 5.95812 7.81205 6.6438Z"/><path d="M6.5 10.5L13.5 17.5M4.5 15.5L8.5 19.5"/><path d="M16 8L19 5"/><path d="M14.1973 2C14.5963 2.66667 14.9156 4.4 13 6"/><path d="M22 9.80274C21.3333 9.40365 19.6 9.08438 18 11"/><path d="M17.9998 2V2.02"/><path d="M21.9998 6V6.02"/><path d="M20.9998 13V13.02"/><path d="M10.9998 3V3.02"/></svg>