<svg viewBox="0 0 24 24" xmlns="http://www.w3.org/2000/svg"><path d="M16.5 2H7.5C6.39543 2 5.5 2.89543 5.5 4V20C5.5 21.1046 6.39543 22 7.5 22H16.5C17.6046 22 18.5 21.1046 18.5 20V4C18.5 2.89543 17.6046 2 16.5 2Z"/><path d="M12 19H12.009"/><path d="M11 5H13"/><path d="M22 8.5C22 8.5 21 8.846 21 9.8125C21 10.779 22 11.0335 22 12C22 12.9665 21 13.221 21 14.1875C21 15.154 22 15.5 22 15.5"/><path d="M2 8.5C2 8.5 3 8.846 3 9.8125C3 10.779 2 11.0335 2 12C2 12.9665 3 13.221 3 14.1875C3 15.154 2 15.5 2 15.5"/></svg>