<?xml version="1.0" encoding="UTF-8"?>
<svg id="a" data-name="Layer 1" xmlns="http://www.w3.org/2000/svg" width="20" height="20" viewBox="0 0 20 20">
  <path d="m6.18,4.91h7.64c.7,0,1.27.57,1.27,1.27v7.64c0,.7-.57,1.27-1.27,1.27h-7.64c-.7,0-1.27-.57-1.27-1.27v-7.64c0-.7.57-1.27,1.27-1.27Zm1.91,7h3.82v-3.82h-3.82v3.82Zm0-8.91v1.91m3.82-1.91v1.91m-3.82,10.18v1.91m3.82-1.91v1.91m3.18-8.91h1.91m-1.91,3.18h1.91m-14-3.18h1.91m-1.91,3.18h1.91" fill="none" stroke="#000" stroke-linecap="round" stroke-linejoin="round" stroke-width="1.5"/>
</svg>