<?xml version="1.0" encoding="UTF-8"?>
<svg id="a" data-name="Layer 1" xmlns="http://www.w3.org/2000/svg" viewBox="0 0 20 20">
  <path d="m13.24,13.24c-.93.71-2.07,1.1-3.24,1.12-3.82,0-6-4.36-6-4.36.68-1.26,1.62-2.37,2.76-3.24m2.09-.99c.38-.09.76-.13,1.15-.13,3.82,0,6,4.36,6,4.36-.33.62-.73,1.2-1.18,1.74m-3.67-.58c-.62.66-1.65.7-2.31.08s-.7-1.65-.08-2.31c.03-.03.05-.06.08-.08m-4.84-4.84l12,12" fill="none" stroke="currentColor" stroke-linecap="round" stroke-linejoin="round" stroke-width="var(--ep-icon-stroke-width)"/>
</svg>