<?xml version="1.0" encoding="UTF-8"?>
<svg id="a" data-name="Layer 1" xmlns="http://www.w3.org/2000/svg" viewBox="0 0 20 20">
  <path d="m6.5,3h7c1.93,0,3.5,1.57,3.5,3.5v7c0,1.93-1.57,3.5-3.5,3.5h-7c-1.93,0-3.5-1.57-3.5-3.5v-7c0-1.93,1.57-3.5,3.5-3.5Zm3.94,4.2c-.27-.04-.55-.04-.82,0-1.53.23-2.59,1.65-2.36,3.18.23,1.53,1.65,2.59,3.18,2.36,1.53-.23,2.59-1.65,2.36-3.18-.18-1.22-1.14-2.18-2.36-2.36Zm3.41-1.05h0" fill="none" stroke="currentColor" stroke-linecap="round" stroke-linejoin="round" stroke-width="var(--ep-icon-stroke-width)"/>
</svg>