<?xml version="1.0" encoding="UTF-8"?>
<svg id="a" data-name="Layer 1" xmlns="http://www.w3.org/2000/svg" viewBox="0 0 20 20">
  <path d="m13.87,4.9l2.13,2.13-2.13,2.13m-2.13-2.13h4.26m-1.45,5.26c-.51-.07-1.01-.19-1.49-.37-.39-.15-.83-.05-1.12.24l-.68.68c-1.33-.76-2.43-1.86-3.19-3.19l.68-.68c.29-.3.39-.73.24-1.12-.18-.48-.31-.98-.37-1.49-.07-.53-.53-.92-1.06-.91h-1.6s-.06,0-.09,0c-.59.05-1.02.57-.96,1.16.17,1.64.73,3.22,1.63,4.61.82,1.29,1.91,2.38,3.19,3.19,1.38.9,2.95,1.46,4.59,1.63.03,0,.07,0,.1,0,.59,0,1.06-.48,1.06-1.07v-1.6c.01-.54-.38-1-.91-1.08Z" fill="none" stroke="currentColor" stroke-linecap="round" stroke-linejoin="round" stroke-width="var(--ep-icon-stroke-width)"/>
</svg>