<?xml version="1.0" encoding="UTF-8"?>
<svg id="a" data-name="Layer 1" xmlns="http://www.w3.org/2000/svg" viewBox="0 0 20 20">
  <path d="m15.97,4.93l-3.17,3.17m0-3.17l3.17,3.17m-1.44,4.17c-.51-.07-1.01-.19-1.49-.37-.39-.15-.82-.05-1.12.24l-.67.67c-1.32-.75-2.42-1.85-3.17-3.17l.67-.67c.29-.29.38-.73.24-1.12-.18-.48-.3-.98-.37-1.49-.07-.53-.53-.92-1.06-.91h-1.59s-.06,0-.09,0c-.58.05-1.01.57-.96,1.15.17,1.64.73,3.21,1.62,4.59.81,1.28,1.9,2.36,3.17,3.17,1.37.89,2.94,1.45,4.57,1.62.03,0,.07,0,.1,0,.58,0,1.06-.48,1.05-1.06v-1.59c.01-.54-.38-1-.91-1.07Z" fill="none" stroke="currentColor" stroke-linecap="round" stroke-linejoin="round" stroke-width="var(--ep-icon-stroke-width)"/>
</svg>