<?xml version="1.0" encoding="UTF-8"?>
<svg id="a" data-name="Layer 1" xmlns="http://www.w3.org/2000/svg" width="20" height="20" viewBox="0 0 20 20">
  <path d="m9.28,10.71c.55.55,1.18,1.03,1.86,1.42l.69-.69c.3-.3.75-.4,1.15-.25.49.18,1.01.31,1.53.38.54.08.94.54.94,1.09v1.64c0,.6-.48,1.09-1.09,1.1-.03,0-.07,0-.1,0-1.68-.18-3.29-.76-4.71-1.67-.66-.42-1.27-.91-1.82-1.46m-1.46-1.82c-.92-1.42-1.49-3.03-1.67-4.71-.05-.6.39-1.13.99-1.18.03,0,.06,0,.1,0h1.64c.55,0,1.01.4,1.09.94.07.52.2,1.04.38,1.53.15.4.05.85-.25,1.15l-.69.69m8.13-4.86l-12,12" fill="none" stroke="#000" stroke-linecap="round" stroke-linejoin="round" stroke-width="1.5"/>
</svg>