<?xml version="1.0" encoding="UTF-8"?>
<svg id="a" data-name="Layer 1" xmlns="http://www.w3.org/2000/svg" viewBox="0 0 20 20">
  <path d="m11.77,7.03c1.06.21,1.89,1.04,2.1,2.1m-2.1-4.23c2.22.25,3.98,2,4.23,4.22m-.53,4.25v1.6c0,.59-.47,1.07-1.06,1.07-.03,0-.07,0-.1,0-1.64-.18-3.21-.74-4.59-1.63-1.29-.82-2.38-1.91-3.19-3.19-.9-1.39-1.46-2.97-1.63-4.61-.05-.59.38-1.1.96-1.16.03,0,.06,0,.09,0h1.6c.53,0,.99.39,1.06.91.07.51.19,1.01.37,1.49.15.39.05.83-.24,1.12l-.68.68c.76,1.33,1.86,2.43,3.19,3.19l.68-.68c.3-.29.73-.39,1.12-.24.48.18.98.31,1.49.37.53.08.93.54.91,1.08Z" fill="none" stroke="currentColor" stroke-linecap="round" stroke-linejoin="round" stroke-width="var(--ep-icon-stroke-width)"/>
</svg>