<?xml version="1.0" encoding="UTF-8"?>
<svg id="a" data-name="Layer 1" xmlns="http://www.w3.org/2000/svg" viewBox="0 0 20 20">
  <path d="m10,8.68c.77,0,1.39.62,1.39,1.39s-.62,1.39-1.39,1.39-1.39-.62-1.39-1.39.62-1.39,1.39-1.39Zm2.96,4.36s0,0,0,0c1.63-1.63,1.63-4.28,0-5.92m-5.91,0s0,0,0,0c-1.63,1.63-1.63,4.28,0,5.92m7.89,1.97c2.72-2.72,2.72-7.14,0-9.86m-9.86,0c-2.72,2.72-2.72,7.14,0,9.86" fill="none" stroke="currentColor" stroke-linecap="round" stroke-linejoin="round" stroke-width="var(--ep-icon-stroke-width)"/>
</svg>